<?xml version="1.0" standalone="no"?>
<!DOCTYPE svg PUBLIC "-//W3C//DTD SVG 20010904//EN"
 "http://www.w3.org/TR/2001/REC-SVG-20010904/DTD/svg10.dtd">
<svg version="1.0" xmlns="http://www.w3.org/2000/svg"
 width="700.000000pt" height="700.000000pt" viewBox="0 0 700.000000 700.000000"
 preserveAspectRatio="xMidYMid meet">
<metadata>
Created by potrace 1.11, written by Peter Selinger 2001-2013
</metadata>
<g transform="translate(0.000000,700.000000) scale(0.100000,-0.100000)"
fill="#000000" stroke="none">
<path d="M0 3500 l0 -3500 3500 0 3500 0 0 3500 0 3500 -3500 0 -3500 0 0
-3500z m2310 2225 c0 -13 -1392 -1405 -1405 -1405 -13 0 -135 122 -135 135 0
5 316 326 702 712 l703 703 67 -67 c38 -37 68 -72 68 -78z m3920 -1270 c0 -13
-122 -135 -135 -135 -13 0 -1405 1392 -1405 1405 0 5 30 40 67 77 l68 68 702
-702 c387 -387 703 -707 703 -713z m-4362 318 c-387 -387 -707 -703 -713 -703
-13 0 -135 122 -135 135 0 5 316 326 702 712 l703 703 72 -72 73 -73 -702
-702z m4044 -635 l-72 -73 -705 705 -705 705 72 72 73 73 705 -705 705 -705
-73 -72z m-2890 885 c192 -192 348 -351 348 -356 0 -4 -114 -119 -252 -257
l-253 -249 317 -318 318 -318 315 315 315 315 -255 255 -255 255 355 355 355
355 707 -708 708 -707 -350 -350 c-192 -192 -354 -350 -360 -350 -5 0 -122
112 -260 250 l-250 250 -315 -315 -315 -315 474 -474 473 -473 107 0 c126 0
205 -22 297 -81 166 -107 258 -316 224 -510 -47 -278 -309 -470 -585 -431
-145 20 -303 126 -373 251 -53 94 -67 152 -66 270 l0 107 -473 473 -473 473
-475 -475 -475 -475 6 -80 c23 -321 -261 -586 -583 -545 -220 28 -405 209
-443 432 -34 194 58 403 224 510 92 59 171 81 297 81 l107 0 473 473 474 474
-314 314 -314 315 -255 -250 c-141 -137 -258 -249 -261 -249 -3 0 -164 158
-356 350 l-350 350 705 705 c388 388 707 705 710 705 3 0 161 -156 352 -347z"/>
<path d="M1924 1969 c-71 -27 -137 -88 -171 -157 -37 -75 -40 -192 -7 -263 30
-64 88 -125 148 -157 45 -24 62 -27 146 -27 84 0 101 3 146 27 60 32 118 93
148 157 16 35 21 65 21 126 0 69 -4 89 -30 139 -74 146 -249 214 -401 155z"/>
<path d="M4864 1979 c-18 -5 -53 -24 -80 -41 -172 -116 -193 -343 -45 -488 71
-71 138 -95 245 -88 171 11 288 136 290 308 1 66 -3 84 -32 143 -56 113 -160
178 -285 176 -34 0 -76 -5 -93 -10z"/>
</g>
</svg>
