<svg width="36" height="36" viewBox="0 0 36 36" fill="none" xmlns="http://www.w3.org/2000/svg">
<g clip-path="url(#clip0)">
<path d="M35.1814 30.3183L33.3515 33.366C33.0429 33.8834 32.615 34.3194 32.1036 34.6379C31.8119 34.8217 31.4944 34.9612 31.1617 35.0519C28.126 35.8858 21.4245 36.0598 10.6854 25.3147C-0.0537467 14.5696 0.114285 7.87411 0.948193 4.83833C1.03889 4.50564 1.17838 4.18821 1.36216 3.89644C1.68065 3.38502 2.11669 2.95721 2.63408 2.64856L5.68181 0.818688C6.37777 0.40198 7.27826 0.605307 7.72766 1.28067L10.3734 5.24035L12.5873 8.5641C13.025 9.22829 12.8816 10.117 12.2573 10.61L11.5253 11.1799L9.52751 12.7278C8.93954 13.187 8.76954 14.0039 9.12557 14.6596C9.92953 16.0995 10.6855 17.7973 14.4411 21.559C18.1968 25.3207 19.9006 26.0707 21.3405 26.8746C21.9962 27.2305 22.8131 27.0606 23.2723 26.4726L24.8202 24.4748L25.3902 23.7428C25.8831 23.1184 26.7718 22.9752 27.436 23.4129L30.8617 25.6987L34.7194 28.2725C35.3947 28.7218 35.5981 29.6223 35.1814 30.3183Z" fill="white"/>
<path d="M33.9805 31.5181L32.1506 34.5658C32.1326 34.5898 32.1206 34.6138 32.1026 34.6378C31.8108 34.8216 31.4934 34.9611 31.1607 35.0518C28.1249 35.8857 21.4235 36.0597 10.6844 25.3146C-0.0547844 14.5695 0.113318 7.87408 0.947226 4.83831C1.03792 4.50562 1.17741 4.18818 1.36119 3.89641C1.38517 3.87841 1.40921 3.86639 1.43319 3.84839L4.48091 2.01852C5.17688 1.60181 6.07737 1.80514 6.52677 2.4805L9.17255 6.44018L11.3864 9.76393C11.8188 10.4293 11.676 11.3141 11.0564 11.8098L9.04656 13.3697L8.32662 13.9276C7.73731 14.386 7.5671 15.2041 7.92468 15.8595C8.72863 17.2993 9.48457 18.9972 13.2402 22.7589C16.9959 26.5206 18.6997 27.2705 20.1396 28.0744C20.7951 28.432 21.613 28.2618 22.0714 27.6725L22.6294 26.9525L24.1893 24.9427C24.685 24.323 25.5698 24.1803 26.2352 24.6127L29.6608 26.8985L33.5185 29.4723C34.1939 29.9216 34.3972 30.8222 33.9805 31.5181Z" fill="white"/>
<path d="M29.4007 35.362C25.714 35.0747 20.1213 32.9574 12.4821 25.3164C1.73938 14.5773 1.91339 7.87587 2.7473 4.84009C2.838 4.5074 2.97748 4.18997 3.16127 3.89819C3.47975 3.38678 3.9158 2.95897 4.43318 2.65032L7.35316 0.897291C6.8613 0.539711 6.20372 0.509479 5.68113 0.820516L2.63333 2.65025C2.11595 2.9589 1.6799 3.38678 1.36141 3.89812C1.17763 4.1899 1.03814 4.50733 0.947447 4.84002C0.113539 7.87587 -0.0604693 14.5773 10.6846 25.3164C19.6899 34.3271 25.8574 35.6583 29.4007 35.362Z" fill="white"/>
<path d="M10.2587 25.7406C8.40046 23.8807 6.66649 21.9005 5.06799 19.8131C3.41825 17.6743 2.07349 15.3168 1.07232 12.8081C0.575464 11.5289 0.23989 10.1927 0.0734035 8.83044C-0.0853491 7.43971 0.013924 6.03167 0.366161 4.677L1.52285 4.99437C1.2109 6.20413 1.12407 7.46094 1.26665 8.70206C1.4228 9.96386 1.73496 11.2015 2.19596 12.3863C3.15769 14.7895 4.4481 17.0476 6.03028 19.0962C7.59404 21.1377 9.29012 23.0743 11.1077 24.8936L10.2587 25.7406Z" fill="white"/>
<path d="M0.0745867 8.82988C0.241073 10.1921 0.576647 11.5283 1.0735 12.8076C2.07467 15.3162 3.41943 17.6738 5.06918 19.8126C5.18476 19.9793 5.30717 20.141 5.43632 20.2973C5.64358 20.5591 6.02289 20.6053 6.28703 20.4011C6.54485 20.1985 6.58991 19.8254 6.38785 19.5672C6.26186 19.4148 6.14185 19.2576 6.02788 19.0956C4.44668 17.0465 3.15726 14.788 2.19658 12.3846C1.73572 11.2003 1.42356 9.96329 1.26727 8.70206C1.1249 7.46192 1.21173 6.2061 1.52347 4.99739C1.74205 4.225 2.25121 3.56728 2.94416 3.16217L5.99132 1.33413C6.4119 1.08067 6.95748 1.20343 7.229 1.61247L12.0886 8.89885C12.3539 9.30009 12.2668 9.83787 11.8882 10.1348L9.16026 12.2568C8.33007 12.8916 8.093 14.0402 8.60413 14.9518L8.82074 15.3453C9.58751 16.7516 10.5408 18.5011 14.0211 21.9808C17.5014 25.4606 19.2503 26.4139 20.656 27.1806L21.0501 27.3977C21.9617 27.9088 23.1103 27.6718 23.7451 26.8416L25.8671 24.1136C26.1641 23.7353 26.7016 23.6482 27.103 23.9133L34.3894 28.7729C34.7985 29.0445 34.9212 29.59 34.6678 30.0106L32.8397 33.0577C32.4347 33.7499 31.7774 34.2582 31.0057 34.476C27.3148 35.4893 20.8665 34.65 11.1083 24.8918L9.46145 23.1765C9.23373 22.9403 8.86005 22.926 8.61489 23.1441C8.496 23.2513 8.42555 23.4021 8.41943 23.562C8.41332 23.722 8.47216 23.8776 8.58248 23.9936L10.2594 25.7407C18.3449 33.8256 24.3642 35.9998 28.5015 35.9998C29.4537 36.0039 30.4021 35.88 31.3213 35.6315C32.3908 35.3317 33.3025 34.6292 33.8651 33.6715L35.6973 30.6262C36.2809 29.6566 35.9984 28.3994 35.056 27.7728L27.769 22.9132C26.8442 22.3014 25.6046 22.5027 24.921 23.3757L22.7984 26.1049C22.5255 26.4646 22.0297 26.5689 21.6351 26.3497L21.2313 26.1271C19.8928 25.3975 18.2274 24.4892 14.8718 21.1325C11.5163 17.7758 10.6062 16.1091 9.87661 14.773L9.65521 14.3693C9.43297 13.9747 9.53534 13.4767 9.89517 13.2018L12.6226 11.0798C13.4952 10.396 13.6968 9.15681 13.0858 8.23178L8.22616 0.944767C7.5998 0.00279789 6.34349 -0.279976 5.37396 0.302797L2.32679 2.13323C1.36936 2.69625 0.66678 3.60778 0.366219 4.67707C0.0145447 6.03167 -0.0843065 7.43949 0.0745867 8.82988Z" fill="white"/>
<path d="M7.47016 21.1997C7.39261 21.1943 7.31478 21.2041 7.24096 21.2285C7.16608 21.2508 7.09634 21.2877 7.0358 21.3371C6.91453 21.4417 6.83684 21.5878 6.81799 21.7469C6.81096 21.9059 6.86482 22.0617 6.96859 22.1824C7.07644 22.3016 7.22493 22.3763 7.38495 22.3918L7.50074 22.387C7.54194 22.3827 7.58237 22.3726 7.62076 22.357C7.65774 22.3477 7.6931 22.3329 7.72573 22.3132C7.76011 22.2924 7.79301 22.2691 7.82408 22.2436C7.94213 22.1378 8.01602 21.9915 8.03107 21.8338C8.04604 21.5065 7.79905 21.2262 7.47248 21.1997H7.47016V21.1997Z" fill="white"/>
<path d="M20.3983 6.00235C26.0285 6.0086 30.5911 10.5713 30.5975 16.2015C30.5975 16.5329 30.866 16.8015 31.1974 16.8015C31.5287 16.8015 31.7973 16.5329 31.7973 16.2015C31.7904 9.90887 26.6909 4.80938 20.3983 4.80249C20.0669 4.80249 19.7983 5.07113 19.7983 5.40242C19.7983 5.7337 20.0669 6.00235 20.3983 6.00235Z" fill="white"/>
<path d="M20.3983 9.60195C24.0413 9.60624 26.9935 12.5584 26.9978 16.2014C26.9978 16.5328 27.2664 16.8014 27.5977 16.8014C27.929 16.8014 28.1976 16.5328 28.1976 16.2014C28.1926 11.896 24.7036 8.40702 20.3983 8.4021C20.0669 8.4021 19.7983 8.67074 19.7983 9.00203C19.7983 9.33331 20.0669 9.60195 20.3983 9.60195Z" fill="white"/>
<path d="M20.3983 13.2017C22.0541 13.2037 23.396 14.5455 23.398 16.2015C23.398 16.5328 23.6666 16.8014 23.998 16.8014C24.3293 16.8014 24.5979 16.5328 24.5979 16.2015C24.5952 13.8832 22.7166 12.0044 20.3983 12.0018C20.0669 12.0018 19.7983 12.2705 19.7983 12.6018C19.7983 12.933 20.0669 13.2017 20.3983 13.2017Z" fill="white"/>
</g>
<defs>
<clipPath id="clip0">
<rect width="36" height="36" fill="white"/>
</clipPath>
</defs>
</svg>
