<svg width="72" height="72" viewBox="0 0 72 72" fill="none" xmlns="http://www.w3.org/2000/svg">
<g clip-path="url(#clip0)">
<path d="M23.0163 55.4641L30.1514 51.5723C30.1112 51.5325 30.1448 51.521 30.2298 51.5294L33.7218 49.6247C35.1264 48.8585 36.0003 47.3863 36.0003 45.7864V41.4001C35.0278 40.1614 34.1865 38.8252 33.4895 37.4131H33.4894L33.4878 37.4098C33.3263 37.0884 33.1667 36.7489 33.0093 36.3971C32.9876 36.3484 32.966 36.3016 32.9445 36.2524C32.7847 35.8884 32.6289 35.5129 32.4808 35.12C32.4711 35.0946 32.4624 35.0674 32.4528 35.0419C32.3232 34.6942 32.2015 34.3347 32.086 33.9672C32.0543 33.8668 32.0234 33.7671 31.9931 33.6654C31.8719 33.2597 31.7573 32.8468 31.6594 32.4203C30.6289 31.7611 30.004 30.6234 30.0002 29.4001V24.6002C30.0041 23.5833 30.4405 22.6159 31.2002 21.94V15.1628C28.7748 13.3751 25.8107 12.4707 22.8002 12.6001C11.3252 12.6001 10.8002 22.2001 10.8002 22.2001V28.1937C10.0994 28.7603 9.66484 29.5921 9.60029 30.4909V34.6364C9.60353 35.6929 10.1432 36.6754 11.0333 37.2447C11.8254 40.1832 13.3824 42.8593 15.5458 45.0001V48.7882C15.5458 50.17 14.791 51.4414 13.578 52.1032L5.53229 57.1464C2.86182 58.603 1.2002 61.402 1.2002 64.444V67.8003H18.0002V63.9141C18.0002 60.3916 19.9241 57.1508 23.0163 55.4641Z" fill="#A4C2F7"/>
<path d="M23.0163 55.4641L30.1514 51.5723C30.1112 51.5325 30.1448 51.521 30.2298 51.5294L33.7218 49.6247C35.1264 48.8585 36.0003 47.3863 36.0003 45.7864V41.4001C35.0278 40.1614 34.1865 38.8252 33.4895 37.4131H33.4894L33.4878 37.4098C33.3263 37.0884 33.1667 36.7489 33.0093 36.3971C32.9876 36.3484 32.966 36.3016 32.9445 36.2524C32.7847 35.8884 32.6289 35.5129 32.4808 35.12C32.4711 35.0946 32.4624 35.0674 32.4528 35.0419C32.3232 34.6942 32.2015 34.3347 32.086 33.9672C32.0543 33.8668 32.0234 33.7671 31.9931 33.6654C31.8719 33.2597 31.7573 32.8468 31.6594 32.4203C30.6289 31.7611 30.004 30.6234 30.0002 29.4001V24.6002C30.0041 23.5833 30.4405 22.6159 31.2002 21.94V15.1628C28.7748 13.3751 25.8107 12.4707 22.8002 12.6001C11.3252 12.6001 10.8002 22.2001 10.8002 22.2001V28.1937C10.0994 28.7603 9.66484 29.5921 9.60029 30.4909V34.6364C9.60353 35.6929 10.1432 36.6754 11.0333 37.2447C11.8254 40.1832 13.3824 42.8593 15.5458 45.0001V48.7882C15.5458 50.17 14.791 51.4414 13.578 52.1032L5.53229 57.1464C2.86182 58.603 1.2002 61.402 1.2002 64.444V67.8003H18.0002V63.9141C18.0002 60.3916 19.9241 57.1508 23.0163 55.4641Z" fill="white"/>
<path d="M26.6164 55.4641L33.7515 51.5723C33.7112 51.5325 33.7449 51.521 33.8299 51.5294L37.3219 49.6247C38.7265 48.8585 39.6003 47.3863 39.6003 45.7864V41.4001C38.6279 40.1614 37.7866 38.8252 37.0896 37.4131H37.0895L37.0879 37.4098C36.9264 37.0884 36.7667 36.7489 36.6094 36.3971C36.5877 36.3484 36.5661 36.3016 36.5446 36.2524C36.3848 35.8884 36.229 35.5129 36.0809 35.12C36.0712 35.0946 36.0625 35.0674 36.0529 35.0419C35.9233 34.6942 35.8016 34.3347 35.686 33.9672C35.6544 33.8668 35.6235 33.7671 35.5932 33.6654C35.472 33.2597 35.3574 32.8468 35.2595 32.4203C34.229 31.7611 33.6041 30.6234 33.6003 29.4001V24.6002C33.6042 23.5833 34.0406 22.6159 34.8002 21.94V15.1628C32.3749 13.3751 29.4108 12.4707 26.4003 12.6001C14.9253 12.6001 14.4003 22.2001 14.4003 22.2001V28.1937C13.6995 28.7603 13.2649 29.5921 13.2004 30.4909V34.6364C13.2036 35.6929 13.7433 36.6754 14.6334 37.2447C15.4255 40.1832 16.9825 42.8593 19.1459 45.0001V48.7882C19.1459 50.17 18.3911 51.4414 17.1781 52.1032L9.13239 57.1464C6.46178 58.603 4.80029 61.402 4.80029 64.444V67.8003H21.6003V63.9141C21.6003 60.3916 23.5242 57.1508 26.6164 55.4641Z" fill="#F4EFE6"/>
<path d="M65.4794 55.5394L54.0167 49.8082C52.5355 49.0677 51.6 47.5537 51.6001 45.8977V41.3997C51.9851 40.9537 52.347 40.4884 52.6843 40.0054C54.2309 37.8074 55.4323 35.386 56.2471 32.8251C57.7567 32.3661 58.7915 30.9775 58.8 29.3997V24.5998C58.796 23.5829 58.3597 22.6155 57.6 21.9396V14.9997C57.6 14.9997 59.025 4.19971 44.4 4.19971C29.775 4.19971 31.1999 14.9997 31.1999 14.9997V21.9396C30.4403 22.6155 30.0039 23.5828 30 24.5998V29.3997C30.0037 30.623 30.6287 31.7607 31.6592 32.4199C32.4558 35.6861 33.9352 38.7465 36 41.3997V45.786C36 47.3859 35.1262 48.8581 33.7216 49.6243L23.0161 55.4637C19.9239 57.1504 18 60.3912 18 63.9134V67.7996H70.8001V64.1483C70.7999 60.5027 68.7402 57.1698 65.4794 55.5394Z" fill="#FFC671"/>
<path d="M61.8795 55.5394L50.4168 49.8082C48.9356 49.0677 48.0001 47.5537 48.0002 45.8977V41.3997C48.3852 40.9537 48.7471 40.4884 49.0844 40.0054C50.631 37.8074 51.8324 35.386 52.6472 32.8251C54.1568 32.3661 55.1916 30.9775 55.2001 29.3997V24.5998C55.1961 23.5829 54.7598 22.6155 54.0001 21.9396V14.9997C54.0001 14.9997 55.4251 4.19971 40.8001 4.19971C34 4.19971 32.4001 14.9997 32.4001 14.9997V21.9396C31.6404 22.6155 31.2041 23.5828 31.2002 24.5998V29.3997C31.2039 30.623 31.8289 31.7607 32.8594 32.4199C33.656 35.6861 35.1354 38.7465 37.2002 41.3997V45.786C37.2002 47.3859 36.3264 48.8581 34.9218 49.6243L24.2163 55.4637C21.1241 57.1504 19.2002 60.3912 19.2002 63.9134V67.7996H67.2002V64.1483C67.2 60.5027 65.1403 57.1698 61.8795 55.5394Z" fill="#F4EFE6"/>
<path d="M70.8004 68.9998H18.0004C17.6822 69 17.3769 68.8735 17.1517 68.6484C16.9267 68.4234 16.8003 68.1181 16.8003 67.7997V63.9138C16.7989 59.952 18.963 56.3062 22.4417 54.41L33.1474 48.5705C34.1665 48.0149 34.8006 46.9469 34.8003 45.7861V41.8159C32.8529 39.2187 31.4256 36.2698 30.5967 33.1312C29.4615 32.2254 28.8002 30.8522 28.8002 29.4V24.6C28.8047 23.4391 29.2313 22.3196 30.0002 21.45V15.0667C29.7672 12.2271 30.6701 9.41095 32.5109 7.23633C34.9754 4.42495 38.9756 3 44.4002 3C49.8248 3 53.825 4.42495 56.2895 7.23633C58.1303 9.41095 59.0332 12.2271 58.8002 15.0667V21.45C59.5691 22.3196 59.9957 23.4391 60.0002 24.6V29.4C60.0021 31.2696 58.9099 32.9673 57.2076 33.7406C56.3639 36.2172 55.1704 38.5604 53.6633 40.6992C53.3645 41.1222 53.0751 41.5043 52.8002 41.8406V45.8977C52.7959 47.1001 53.4759 48.2005 54.5533 48.7348L66.0167 54.4664C69.6934 56.2896 72.014 60.0444 72.0003 64.1484V67.8C72.0004 68.1182 71.874 68.4235 71.6488 68.6487C71.424 68.8735 71.1187 69 70.8004 68.9998ZM19.2003 66.5998H69.6003V64.1481C69.6116 60.954 67.8054 58.0313 64.9433 56.613L53.4801 50.8814C51.5877 49.9426 50.3935 48.0098 50.4004 45.8975V41.3998C50.4002 41.1081 50.5066 40.8264 50.6992 40.6076C51.0564 40.1936 51.3918 39.7615 51.7041 39.3128C53.1812 37.2146 54.328 34.9028 55.1049 32.4573C55.225 32.0848 55.5194 31.7942 55.8935 31.6792C56.9029 31.3791 57.5963 30.453 57.6003 29.4V24.6C57.598 23.9222 57.3051 23.2778 56.7957 22.8305C56.5437 22.603 56.4 22.2794 56.4002 21.9399V15.0001C56.4002 14.9476 56.4037 14.895 56.4107 14.843C56.5747 12.65 55.876 10.4796 54.4636 8.79375C52.4722 6.54122 49.0861 5.39977 44.4003 5.39977C39.697 5.39977 36.3044 6.54938 34.3157 8.81808C32.9062 10.4948 32.2143 12.6594 32.3897 14.8427C32.3967 14.8948 32.4002 14.9472 32.4002 14.9998V21.9397C32.4004 22.2791 32.2567 22.6028 32.0047 22.8302C31.4953 23.2776 31.2024 23.9219 31.2002 24.5997V29.3997C31.2028 30.2159 31.6215 30.9744 32.3105 31.4117C32.5731 31.5813 32.7591 31.8465 32.8292 32.1511C33.584 35.2328 34.978 38.1214 36.9208 40.6297C37.1013 40.8457 37.2002 41.1181 37.2003 41.3996V45.786C37.2005 47.8249 36.087 49.701 34.297 50.6774L23.5914 56.517C20.8835 57.9924 19.1989 60.8301 19.2003 63.9138V66.5998Z" fill="#FE9800"/>
<path d="M18.0001 68.9997H1.20009C0.88186 68.9998 0.576563 68.8734 0.351422 68.6483C0.126422 68.4233 3.82005e-07 68.118 3.82005e-07 67.7996V64.4433C-0.000983993 60.9621 1.90055 57.7587 4.95703 56.0926L12.9405 51.0852C13.7988 50.6391 14.3397 49.7544 14.3456 48.7872V45.4955C12.3045 43.3682 10.8049 40.7815 9.97284 37.9533C8.97694 37.1398 8.39953 35.9217 8.40009 34.6357V30.4908C8.43427 29.441 8.86275 28.4427 9.60005 27.6947V22.1998C9.60764 22.0264 10.3331 11.3998 22.8001 11.3998C26.0757 11.2802 29.2953 12.2723 31.9354 14.2147C32.2283 14.4421 32.3999 14.792 32.4 15.1627V21.9397C32.4001 22.2791 32.2564 22.6029 32.0044 22.8302C31.4951 23.2776 31.2022 23.9219 31.1999 24.5997V29.3997C31.2026 30.2159 31.6212 30.9744 32.3103 31.4117C32.5728 31.5813 32.7589 31.8466 32.8289 32.1512C32.9209 32.5519 33.0287 32.941 33.1424 33.3219L33.2297 33.6031C33.3398 33.9547 33.4547 34.2946 33.5772 34.6215C33.7435 35.068 33.8912 35.4243 34.0424 35.7676L33.0093 36.3969L34.1051 35.9071C34.2544 36.2422 34.4069 36.5657 34.5597 36.8715C35.2163 38.2021 36.0077 39.462 36.9217 40.6308C37.1015 40.8466 37.2001 41.1187 37.2 41.3996V45.786C37.2001 47.8249 36.0866 49.701 34.2966 50.6774L30.8045 52.5828C30.7893 52.591 30.7734 52.5993 30.7582 52.6063C30.7477 52.6134 30.7365 52.6193 30.726 52.625L23.5911 56.5168C20.8832 57.9923 19.1987 60.8299 19.2001 63.9137V67.7996C19.2002 68.1178 19.0738 68.4231 18.8487 68.6483C18.6237 68.8734 18.3184 68.9998 18.0001 68.9997ZM2.40019 66.5996H16.8002V63.9137C16.7988 59.9519 18.9629 56.306 22.4416 54.4098L29.3785 50.6259C29.4989 50.5324 29.6336 50.4593 29.7776 50.4091L33.1474 48.5704C34.1665 48.0148 34.8006 46.9467 34.8003 45.786V41.8145C33.8927 40.6005 33.0953 39.3078 32.4173 37.9521C32.2462 37.6111 32.0787 37.2549 31.914 36.8868L31.8466 36.7357C31.6779 36.3525 31.5138 35.9563 31.358 35.5415C31.1922 35.0939 31.0632 34.7142 30.9413 34.3251L30.8445 34.0122C30.7572 33.7228 30.675 33.4294 30.5979 33.1322C29.4621 32.2262 28.8004 30.8525 28.8003 29.3997V24.5997C28.8048 23.4389 29.2313 22.3194 30.0002 21.4497V15.772C27.8573 14.3963 25.3451 13.7082 22.8002 13.7997C12.6442 13.7997 12.0195 21.9243 11.9978 22.27L12.0002 28.1927C12.0001 28.5316 11.8567 28.8548 11.6054 29.0822C11.1586 29.4244 10.8685 29.9321 10.8003 30.4908V34.6356C10.8028 35.2848 11.1358 35.8881 11.6838 36.2363C11.9469 36.4053 12.1333 36.6708 12.203 36.9757C12.9395 39.6815 14.3745 42.1459 16.3644 44.1219C16.6075 44.349 16.7458 44.6668 16.7458 44.9996V48.7871C16.7469 50.6085 15.7518 52.2846 14.1524 53.1559L6.1695 58.1633C3.85383 59.4041 2.40609 61.8161 2.40019 64.4433V66.5996Z" fill="#428DFF"/>
<path d="M18.0001 68.9997H1.20009C0.88186 68.9998 0.576563 68.8734 0.351422 68.6483C0.126422 68.4233 3.82005e-07 68.118 3.82005e-07 67.7996V64.4433C-0.000983993 60.9621 1.90055 57.7587 4.95703 56.0926L12.9405 51.0852C13.7988 50.6391 14.3397 49.7544 14.3456 48.7872V45.4955C12.3045 43.3682 10.8049 40.7815 9.97284 37.9533C8.97694 37.1398 8.39953 35.9217 8.40009 34.6357V30.4908C8.43427 29.441 8.86275 28.4427 9.60005 27.6947V22.1998C9.60764 22.0264 10.3331 11.3998 22.8001 11.3998C26.0757 11.2802 29.2953 12.2723 31.9354 14.2147C32.2283 14.4421 32.3999 14.792 32.4 15.1627V21.9397C32.4001 22.2791 32.2564 22.6029 32.0044 22.8302C31.4951 23.2776 31.2022 23.9219 31.1999 24.5997V29.3997C31.2026 30.2159 31.6212 30.9744 32.3103 31.4117C32.5728 31.5813 32.7589 31.8466 32.8289 32.1512C32.9209 32.5519 33.0287 32.941 33.1424 33.3219L33.2297 33.6031C33.3398 33.9547 33.4547 34.2946 33.5772 34.6215C33.7435 35.068 33.8912 35.4243 34.0424 35.7676L33.0093 36.3969L34.1051 35.9071C34.2544 36.2422 34.4069 36.5657 34.5597 36.8715C35.2163 38.2021 36.0077 39.462 36.9217 40.6308C37.1015 40.8466 37.2001 41.1187 37.2 41.3996V45.786C37.2001 47.8249 36.0866 49.701 34.2966 50.6774L30.8045 52.5828C30.7893 52.591 30.7734 52.5993 30.7582 52.6063C30.7477 52.6134 30.7365 52.6193 30.726 52.625L23.5911 56.5168C20.8832 57.9923 19.1987 60.8299 19.2001 63.9137V67.7996C19.2002 68.1178 19.0738 68.4231 18.8487 68.6483C18.6237 68.8734 18.3184 68.9998 18.0001 68.9997ZM2.40019 66.5996H16.8002V63.9137C16.7988 59.9519 18.9629 56.306 22.4416 54.4098L29.3785 50.6259C29.4989 50.5324 29.6336 50.4593 29.7776 50.4091L33.1474 48.5704C34.1665 48.0148 34.8006 46.9467 34.8003 45.786V41.8145C33.8927 40.6005 33.0953 39.3078 32.4173 37.9521C32.2462 37.6111 32.0787 37.2549 31.914 36.8868L31.8466 36.7357C31.6779 36.3525 31.5138 35.9563 31.358 35.5415C31.1922 35.0939 31.0632 34.7142 30.9413 34.3251L30.8445 34.0122C30.7572 33.7228 30.675 33.4294 30.5979 33.1322C29.4621 32.2262 28.8004 30.8525 28.8003 29.3997V24.5997C28.8048 23.4389 29.2313 22.3194 30.0002 21.4497V15.772C27.8573 14.3963 25.3451 13.7082 22.8002 13.7997C12.6442 13.7997 12.0195 21.9243 11.9978 22.27L12.0002 28.1927C12.0001 28.5316 11.8567 28.8548 11.6054 29.0822C11.1586 29.4244 10.8685 29.9321 10.8003 30.4908V34.6356C10.8028 35.2848 11.1358 35.8881 11.6838 36.2363C11.9469 36.4053 12.1333 36.6708 12.203 36.9757C12.9395 39.6815 14.3745 42.1459 16.3644 44.1219C16.6075 44.349 16.7458 44.6668 16.7458 44.9996V48.7871C16.7469 50.6085 15.7518 52.2846 14.1524 53.1559L6.1695 58.1633C3.85383 59.4041 2.40609 61.8161 2.40019 64.4433V66.5996Z" fill="#FE9800"/>
</g>
<defs>
<clipPath id="clip0">
<rect width="72" height="72" fill="white"/>
</clipPath>
</defs>
</svg>
