<svg width="72" height="72" viewBox="0 0 72 72" fill="none" xmlns="http://www.w3.org/2000/svg">
<path d="M62.3995 61.1484C62.3995 57.5027 60.3398 54.1698 57.079 52.5392L45.6163 46.8081C44.1351 46.0675 43.1996 44.5536 43.1997 42.8976V38.3997C43.5847 37.9537 43.9466 37.4884 44.2839 37.0054C45.8305 34.8074 47.0319 32.386 47.8467 29.8251C49.3563 29.3661 50.3911 27.9775 50.3996 26.3997V21.5998C50.3956 20.5829 49.9593 19.6155 49.1996 18.9396V11.9997C49.1996 11.9997 50.6246 1.19971 35.9996 1.19971C21.3746 1.19971 22.7995 11.9997 22.7995 11.9997V18.9396C22.0399 19.6155 21.6035 20.5828 21.5996 21.5998V26.3997C21.6034 27.623 22.2283 28.7607 23.2588 29.4199C24.0554 32.6861 25.5348 35.7465 27.5996 38.3997V42.786C27.5996 44.3859 26.7258 45.8581 25.3212 46.6243L14.6157 52.4637C11.5235 54.1504 9.59961 57.3912 9.59961 60.9134V64.7998C9.59961 68.1136 21.4193 70.7998 35.9996 70.7998C50.5798 70.7998 62.3995 68.1136 62.3995 64.7998V61.1484Z" fill="#FFC671"/>
<path d="M58.7999 61.1484C58.7999 57.5027 56.7402 54.1698 53.4794 52.5392L42.0167 46.8081C40.5355 46.0675 39.6 44.5536 39.6001 42.8976V38.3997C39.9851 37.9537 40.347 37.4884 40.6843 37.0054C42.2309 34.8074 43.4323 32.386 44.247 29.8251C45.7567 29.3661 46.7915 27.9775 46.7999 26.3997V21.5998C46.796 20.5829 46.3597 19.6155 45.6 18.9396V11.9997C45.6 11.9997 47.0249 1.19971 32.3999 1.19971C24.2999 1.19971 22.7999 11.9997 22.7999 11.9997V18.9396C22.0402 19.6155 21.6039 20.5828 21.5999 21.5998V26.3997C21.6037 27.623 22.2287 28.7607 23.2592 29.4199C24.0558 32.6861 25.5352 35.7465 27.6 38.3997V42.786C27.6 44.3859 26.7262 45.8581 25.3216 46.6243L17.016 52.4637C13.9238 54.1502 8.3999 57.3911 8.3999 60.9134V64.7998C8.3999 68.1136 33.8196 70.7998 32.3999 70.7998C46.9802 70.7998 58.7999 68.1136 58.7999 64.7998V61.1484Z" fill="#F4EFE6"/>
<path d="M35.9999 72C26.4539 72 8.3999 70.4953 8.3999 64.8V60.9141C8.3985 56.9523 10.5626 53.3064 14.0414 51.4103L24.747 45.5708C25.7661 45.0152 26.4002 43.9471 26.3999 42.7864V38.8162C24.4525 36.219 23.0252 33.27 22.1963 30.1314C21.0611 29.2257 20.3999 27.8525 20.3999 26.4002V21.6C20.4044 20.4391 20.8309 19.3196 21.5998 18.45V12.0667C21.3668 9.22711 22.2697 6.41095 24.1105 4.23633C26.5751 1.42495 30.5753 0 35.9999 0C41.4246 0 45.4248 1.42495 47.8892 4.23633C49.73 6.41095 50.633 9.22711 50.3999 12.0667V18.45C51.1689 19.3196 51.5954 20.4391 51.5999 21.6V26.4C51.6019 28.2696 50.5096 29.9673 48.8074 30.7406C47.9636 33.2172 46.7701 35.5604 45.2631 37.6992C44.9642 38.1222 44.6748 38.5043 44.3999 38.8406V42.8977C44.3957 44.1001 45.0756 45.2005 46.1531 45.7348L57.6164 51.4664C61.2932 53.2896 63.6138 57.0444 63.6 61.1484V64.8C63.5999 70.4953 45.546 72 35.9999 72ZM35.9999 2.40005C31.2966 2.40005 27.904 3.54966 25.9153 5.81836C24.5058 7.49503 23.814 9.65967 23.9893 11.843C23.9963 11.895 23.9999 11.9475 23.9999 12.0001V18.9399C24 19.2794 23.8563 19.6031 23.6043 19.8305C23.0949 20.2778 22.802 20.9222 22.7998 21.6V26.4C22.8024 27.2161 23.2211 27.9747 23.9101 28.412C24.1727 28.5816 24.3587 28.8468 24.4288 29.1514C25.1836 32.2331 26.5777 35.1217 28.5204 37.63C28.7009 37.846 28.7998 38.1184 28.7998 38.3999V42.7863C28.7999 44.8252 27.6865 46.7013 25.8965 47.6776L15.1908 53.5171C12.4829 54.9925 10.7984 57.8302 10.7998 60.914V64.8C10.7998 66.4289 19.6943 69.6 35.9998 69.6C52.3053 69.6 61.1998 66.4289 61.1998 64.8V61.1484C61.2111 57.9542 59.4049 55.0316 56.5427 53.6133L45.0794 47.8817C43.187 46.9429 41.9928 45.0101 41.9997 42.8978V38.4002C41.9996 38.1085 42.1059 37.8269 42.2985 37.608C42.6557 37.194 42.9911 36.7619 43.3035 36.3132C44.7806 34.215 45.9274 31.9032 46.7042 29.4577C46.8243 29.0852 47.1187 28.7947 47.4928 28.6796C48.5022 28.3795 49.1956 27.4534 49.1996 26.4004V21.6C49.1973 20.9222 48.9044 20.2778 48.3951 19.8305C48.1431 19.603 47.9993 19.2794 47.9995 18.9399V12.0001C47.9995 11.9476 48.003 11.895 48.01 11.843C48.174 9.64997 47.4754 7.47956 46.0629 5.79375C44.0718 3.54136 40.6857 2.40005 35.9999 2.40005Z" fill="#FE9800"/>
</svg>
