<svg width="72" height="72" viewBox="0 0 72 72" fill="none" xmlns="http://www.w3.org/2000/svg">
<g clip-path="url(#clip0)">
<path d="M46.2001 6H42.6001H34.2002V70.8H65.4002V6H46.2001Z" fill="#FFC671"/>
<path d="M18.5997 6H14.9997H6.59961V70.8H37.7996V6H18.5997Z" fill="white"/>
<path d="M34.2 34.7998L24.5999 27.5998L15 34.7998V1.19971H34.2V34.7998Z" fill="#FFC671"/>
<path d="M30.5999 32.3998L24.5999 27.5998L15 34.7998V1.19971H30.5999V32.3998Z" fill="#F4EFE6"/>
<path d="M34.2002 6V34.8L24.6002 27.6L15.0003 34.8V6H10.2002V70.8H61.8003V6H34.2002Z" fill="#F4EFE6"/>
<path d="M57.0002 45.6001H15.0002C14.3375 45.6001 13.8003 45.0628 13.8003 44.4002C13.8003 43.7374 14.3376 43.2002 15.0002 43.2002H57.0003C57.6631 43.2002 58.2002 43.7375 58.2002 44.4002C58.2002 45.0628 57.6629 45.6001 57.0002 45.6001Z" fill="#FE9800"/>
<path d="M57.0001 37.2002H41.4001C40.7374 37.2002 40.2002 36.6629 40.2002 36.0003C40.2002 35.3375 40.7375 34.8003 41.4001 34.8003H57.0001C57.6629 34.8003 58.2001 35.3376 58.2001 36.0003C58.2002 36.663 57.6629 37.2002 57.0001 37.2002Z" fill="#FE9800"/>
<path d="M57.0001 28.8003H41.4001C40.7374 28.8003 40.2002 28.263 40.2002 27.6003C40.2002 26.9377 40.7375 26.4004 41.4001 26.4004H57.0001C57.6629 26.4004 58.2001 26.9377 58.2001 27.6003C58.2001 28.263 57.6629 28.8003 57.0001 28.8003Z" fill="#FE9800"/>
<path d="M57.0001 20.4H41.4001C40.7374 20.4 40.2002 19.8627 40.2002 19.2001C40.2002 18.5375 40.7374 18 41.4001 18H57.0001C57.6629 18 58.2001 18.5372 58.2001 19.2C58.2001 19.8627 57.6629 20.4 57.0001 20.4Z" fill="#FE9800"/>
<path d="M57.0002 60H15.0002C14.3375 60 13.8003 59.4628 13.8003 58.8C13.8003 58.1373 14.3376 57.6001 15.0002 57.6001H57.0003C57.6631 57.6001 58.2002 58.1373 58.2002 58.8C58.2002 59.4628 57.6629 60 57.0002 60Z" fill="#FE9800"/>
<path d="M31.8002 52.8003H15.0002C14.3375 52.8003 13.8003 52.2631 13.8003 51.6003C13.8003 50.9376 14.3376 50.4004 15.0002 50.4004H31.8003C32.4631 50.4004 33.0002 50.9376 33.0002 51.6003C33.0002 52.2631 32.4629 52.8003 31.8002 52.8003Z" fill="#FE9800"/>
<path d="M57.0001 52.8003H41.4001C40.7374 52.8003 40.2002 52.2631 40.2002 51.6003C40.2002 50.9376 40.7375 50.4004 41.4001 50.4004H57.0001C57.6629 50.4004 58.2001 50.9376 58.2001 51.6003C58.2001 52.2631 57.6629 52.8003 57.0001 52.8003Z" fill="#FE9800"/>
<path d="M36.5997 52.8003C36.28 52.7939 35.9752 52.6651 35.7476 52.4405C35.5202 52.2207 35.3942 51.9164 35.3996 51.6003C35.4035 51.2825 35.5278 50.978 35.7476 50.7483C35.8604 50.6372 35.9954 50.5512 36.1438 50.4963C36.4357 50.3756 36.7635 50.3756 37.0554 50.4963C37.2008 50.5573 37.3347 50.6425 37.4516 50.7483C37.5576 50.8648 37.6428 50.9988 37.7036 51.1444C37.7652 51.2885 37.7979 51.4435 37.7996 51.6003C37.8044 51.9164 37.6785 52.2205 37.4516 52.4405C37.3382 52.5537 37.2036 52.6433 37.0554 52.7042C36.9113 52.7657 36.7565 52.7983 36.5997 52.8003Z" fill="#FE9800"/>
<path d="M34.1999 36C33.9403 36.0003 33.6877 35.9159 33.4803 35.7598L24.5998 29.1001L15.7193 35.7598C15.3558 36.0326 14.8694 36.0766 14.4629 35.8734C14.0563 35.6702 13.7997 35.2547 13.7998 34.8V1.19995C13.7997 0.881578 13.9259 0.576281 14.1511 0.351281C14.3762 0.126141 14.6815 -0.000140508 14.9998 1.17323e-07H34.1999C34.5182 -0.000140508 34.8235 0.126141 35.0485 0.351281C35.2735 0.576422 35.3999 0.881719 35.3998 1.19995V34.7999C35.3999 35.1181 35.2735 35.4234 35.0484 35.6486C34.8234 35.8737 34.5181 36.0001 34.1999 36ZM24.5998 26.4C24.8594 26.3997 25.112 26.484 25.3194 26.6401L32.9999 32.3999V2.40005H16.1999V32.4L23.8804 26.6403C24.0876 26.484 24.3402 26.3997 24.5998 26.4Z" fill="#FE9800"/>
<path d="M65.3999 72.0002H6.59986C6.28148 72.0003 5.97618 71.8741 5.75118 71.6489C5.52604 71.4238 5.39976 71.1185 5.3999 70.8002V6.00025C5.39976 5.68187 5.52604 5.37657 5.75118 5.15157C5.97632 4.92643 6.28162 4.80015 6.59986 4.80029H14.9998C15.3182 4.80015 15.6235 4.92643 15.8485 5.15157C16.0736 5.37672 16.1999 5.68201 16.1998 6.00025V32.4002L23.8803 26.6405C24.3062 26.3194 24.8933 26.3194 25.3193 26.6405L32.9998 32.4002V6.00025C32.9997 5.68187 33.1259 5.37657 33.3511 5.15157C33.5762 4.92643 33.8815 4.80015 34.1998 4.80029H65.3998C65.7182 4.80015 66.0235 4.92643 66.2485 5.15157C66.4736 5.37672 66.5999 5.68201 66.5998 6.00025V70.8002C66.5999 71.1186 66.4736 71.4239 66.2485 71.6489C66.0235 71.8741 65.7182 72.0003 65.3999 72.0002ZM7.79995 69.6002H64.2V7.2002H35.4V34.8002C35.4001 35.2547 35.1435 35.6703 34.7369 35.8736C34.3304 36.0768 33.844 36.033 33.4805 35.76L24.6 29.1003L15.7195 35.76C15.356 36.0328 14.8696 36.0768 14.463 35.8736C14.0565 35.6704 13.7999 35.2549 13.8 34.8002V7.2002H7.79995V69.6002Z" fill="#FE9800"/>
</g>
<defs>
<clipPath id="clip0">
<rect width="72" height="72" fill="white"/>
</clipPath>
</defs>
</svg>
