<svg width="72" height="72" viewBox="0 0 72 72" fill="none" xmlns="http://www.w3.org/2000/svg">
<g clip-path="url(#clip0)">
<path d="M70.7587 20.4824H38.4829V70.1375H70.7587V20.4824Z" fill="#FFC671"/>
<path d="M33.517 20.4824H1.24121V70.1375H33.517V20.4824Z" fill="white"/>
<path d="M67.0343 20.4824H4.96533V70.1375H67.0343V20.4824Z" fill="#F4EFE6"/>
<path d="M70.7587 6.82715H38.4829V20.4823H70.7587V6.82715Z" fill="#FFC671"/>
<path d="M33.517 6.82715H1.24121V20.4823H33.517V6.82715Z" fill="white"/>
<path d="M67.0343 6.82715H4.96533V20.4823H67.0343V6.82715Z" fill="#F4EFE6"/>
<path d="M23.5862 8.06881H19.862C19.1765 8.06881 18.6206 7.51306 18.6206 6.82737C18.6206 6.14169 19.1764 5.58594 19.862 5.58594H23.5862C24.2718 5.58594 24.8277 6.14169 24.8277 6.82737C24.8277 7.51306 24.2718 8.06881 23.5862 8.06881Z" fill="#FE9800"/>
<path d="M70.7586 21.7241H1.24144C0.912094 21.7242 0.59625 21.5936 0.363375 21.3607C0.1305 21.1278 -0.000140512 20.812 1.13412e-07 20.4826V6.82752C-0.000140512 6.49817 0.1305 6.18233 0.363375 5.94945C0.59625 5.71658 0.912094 5.58594 1.24144 5.58608H19.8622C20.5477 5.58608 21.1036 6.14183 21.1036 6.82752C21.1036 7.5132 20.5478 8.06895 19.8622 8.06895H2.48273V19.2413H69.5173V8.06881H52.138C51.4524 8.06881 50.8965 7.51306 50.8965 6.82737C50.8965 6.14169 51.4523 5.58594 52.138 5.58594H70.7587C71.0881 5.5858 71.4039 5.71644 71.6368 5.94931C71.8696 6.18219 72.0003 6.49803 72.0001 6.82737V20.4825C72.0003 20.8118 71.8696 21.1277 71.6368 21.3605C71.4037 21.5934 71.0879 21.7242 70.7586 21.7241Z" fill="#FE9800"/>
<path d="M70.7586 71.3792H1.24144C0.912094 71.3793 0.59625 71.2487 0.363375 71.0158C0.1305 70.7829 -0.000140512 70.4671 1.13412e-07 70.1379V6.82752C-0.000140512 6.49817 0.1305 6.18233 0.363375 5.94945C0.59625 5.71658 0.912094 5.58594 1.24144 5.58608H19.8622C20.5477 5.58608 21.1036 6.14183 21.1036 6.82752C21.1036 7.5132 20.5478 8.06895 19.8622 8.06895H2.48273V68.8966H69.5173V8.06881H52.138C51.4524 8.06881 50.8965 7.51306 50.8965 6.82738C50.8965 6.14169 51.4523 5.58594 52.138 5.58594H70.7587C71.0881 5.5858 71.4039 5.71644 71.6368 5.94931C71.8696 6.18219 72.0003 6.49803 72.0001 6.82738V70.1377C72.0003 70.4671 71.8696 70.7829 71.6368 71.0158C71.4037 71.2487 71.0879 71.3795 70.7586 71.3792Z" fill="#FE9800"/>
<path d="M24.8277 13.0341C24.1421 13.0341 23.5862 12.4783 23.5862 11.7926C23.5862 11.1069 24.142 10.5512 24.8277 10.5512C26.8844 10.5512 28.5518 8.88381 28.5518 6.82702C28.5518 4.77024 26.8844 3.10285 24.8277 3.10285C22.7709 3.10285 21.1035 4.77024 21.1035 6.82702C21.1035 7.51257 20.5477 8.06846 19.862 8.06846C19.1764 8.06846 18.6206 7.51271 18.6206 6.82702C18.6206 3.39901 21.3995 0.620117 24.8275 0.620117C28.2555 0.620117 31.0344 3.39901 31.0344 6.82702C31.0344 10.255 28.2555 13.0341 24.8277 13.0341Z" fill="#FE9800"/>
<path d="M32.2756 13.0342C31.5901 13.0342 31.0342 12.4785 31.0342 11.7928C31.0342 11.1071 31.5899 10.5513 32.2756 10.5513C34.3324 10.5513 35.9998 8.88394 35.9998 6.82716C35.9998 4.77038 34.3324 3.10299 32.2756 3.10299C31.5901 3.10299 31.0342 2.54724 31.0342 1.86155C31.0342 1.17587 31.5899 0.620117 32.2756 0.620117C35.7036 0.620117 38.4825 3.39901 38.4825 6.82702C38.4825 10.255 35.7036 13.0342 32.2756 13.0342Z" fill="#FE9800"/>
<path d="M39.7243 13.0342C39.0388 13.0342 38.4829 12.4785 38.4829 11.7928C38.4829 11.1071 39.0387 10.5513 39.7243 10.5513C41.7811 10.5513 43.4485 8.88394 43.4485 6.82716C43.4485 4.77038 41.7811 3.10299 39.7243 3.10299C39.0388 3.10299 38.4829 2.54724 38.4829 1.86155C38.4829 1.17587 39.0387 0.620117 39.7243 0.620117C43.1524 0.620117 45.9313 3.39901 45.9313 6.82702C45.9313 10.255 43.1522 13.0342 39.7243 13.0342Z" fill="#FE9800"/>
<path d="M47.1721 13.0342C46.4866 13.0342 45.9307 12.4785 45.9307 11.7928C45.9307 11.1071 46.4864 10.5513 47.1721 10.5513C49.2289 10.5513 50.8963 8.88394 50.8963 6.82716C50.8963 4.77038 49.2289 3.10299 47.1721 3.10299C46.4866 3.10299 45.9307 2.54724 45.9307 1.86155C45.9307 1.17587 46.4864 0.620117 47.1721 0.620117C50.6001 0.620117 53.379 3.39901 53.379 6.82702C53.379 10.255 50.6001 13.0342 47.1721 13.0342Z" fill="#FE9800"/>
<path d="M27.3103 31.6548C27.9959 31.6548 28.5517 31.0989 28.5517 30.4133C28.5517 29.7277 27.9959 29.1719 27.3103 29.1719C26.6247 29.1719 26.0688 29.7277 26.0688 30.4133C26.0688 31.0989 26.6247 31.6548 27.3103 31.6548Z" fill="#FE9800"/>
<path d="M36.0002 31.6548C36.6859 31.6548 37.2417 31.0989 37.2417 30.4133C37.2417 29.7277 36.6859 29.1719 36.0002 29.1719C35.3146 29.1719 34.7588 29.7277 34.7588 30.4133C34.7588 31.0989 35.3146 31.6548 36.0002 31.6548Z" fill="#FE9800"/>
<path d="M44.6897 31.6548C45.3753 31.6548 45.9311 31.0989 45.9311 30.4133C45.9311 29.7277 45.3753 29.1719 44.6897 29.1719C44.0041 29.1719 43.4482 29.7277 43.4482 30.4133C43.4482 31.0989 44.0041 31.6548 44.6897 31.6548Z" fill="#FE9800"/>
<path d="M53.3796 31.6548C54.0652 31.6548 54.6211 31.0989 54.6211 30.4133C54.6211 29.7277 54.0652 29.1719 53.3796 29.1719C52.694 29.1719 52.1382 29.7277 52.1382 30.4133C52.1382 31.0989 52.694 31.6548 53.3796 31.6548Z" fill="#FE9800"/>
<path d="M62.0691 31.6548C62.7547 31.6548 63.3105 31.0989 63.3105 30.4133C63.3105 29.7277 62.7547 29.1719 62.0691 29.1719C61.3834 29.1719 60.8276 29.7277 60.8276 30.4133C60.8276 31.0989 61.3834 31.6548 62.0691 31.6548Z" fill="#FE9800"/>
<path d="M9.93089 41.5859C10.6165 41.5859 11.1723 41.0301 11.1723 40.3445C11.1723 39.6588 10.6165 39.103 9.93089 39.103C9.24526 39.103 8.68945 39.6588 8.68945 40.3445C8.68945 41.0301 9.24526 41.5859 9.93089 41.5859Z" fill="#FE9800"/>
<path d="M18.6208 41.5859C19.3065 41.5859 19.8623 41.0301 19.8623 40.3445C19.8623 39.6588 19.3065 39.103 18.6208 39.103C17.9352 39.103 17.3794 39.6588 17.3794 40.3445C17.3794 41.0301 17.9352 41.5859 18.6208 41.5859Z" fill="#FE9800"/>
<path d="M27.3103 41.5859C27.9959 41.5859 28.5517 41.0301 28.5517 40.3445C28.5517 39.6588 27.9959 39.103 27.3103 39.103C26.6247 39.103 26.0688 39.6588 26.0688 40.3445C26.0688 41.0301 26.6247 41.5859 27.3103 41.5859Z" fill="#FE9800"/>
<path d="M36.0002 41.5859C36.6859 41.5859 37.2417 41.0301 37.2417 40.3445C37.2417 39.6588 36.6859 39.103 36.0002 39.103C35.3146 39.103 34.7588 39.6588 34.7588 40.3445C34.7588 41.0301 35.3146 41.5859 36.0002 41.5859Z" fill="#FE9800"/>
<path d="M44.6897 41.5859C45.3753 41.5859 45.9311 41.0301 45.9311 40.3445C45.9311 39.6588 45.3753 39.103 44.6897 39.103C44.0041 39.103 43.4482 39.6588 43.4482 40.3445C43.4482 41.0301 44.0041 41.5859 44.6897 41.5859Z" fill="#FE9800"/>
<path d="M53.3796 41.5859C54.0652 41.5859 54.6211 41.0301 54.6211 40.3445C54.6211 39.6588 54.0652 39.103 53.3796 39.103C52.694 39.103 52.1382 39.6588 52.1382 40.3445C52.1382 41.0301 52.694 41.5859 53.3796 41.5859Z" fill="#FE9800"/>
<path d="M62.0691 41.5859C62.7547 41.5859 63.3105 41.0301 63.3105 40.3445C63.3105 39.6588 62.7547 39.103 62.0691 39.103C61.3834 39.103 60.8276 39.6588 60.8276 40.3445C60.8276 41.0301 61.3834 41.5859 62.0691 41.5859Z" fill="#FE9800"/>
<path d="M9.93089 50.2754C10.6165 50.2754 11.1723 49.7195 11.1723 49.0339C11.1723 48.3483 10.6165 47.7925 9.93089 47.7925C9.24526 47.7925 8.68945 48.3483 8.68945 49.0339C8.68945 49.7195 9.24526 50.2754 9.93089 50.2754Z" fill="#FE9800"/>
<path d="M18.6208 50.2754C19.3065 50.2754 19.8623 49.7195 19.8623 49.0339C19.8623 48.3483 19.3065 47.7925 18.6208 47.7925C17.9352 47.7925 17.3794 48.3483 17.3794 49.0339C17.3794 49.7195 17.9352 50.2754 18.6208 50.2754Z" fill="#FE9800"/>
<path d="M27.3103 50.2754C27.9959 50.2754 28.5517 49.7195 28.5517 49.0339C28.5517 48.3483 27.9959 47.7925 27.3103 47.7925C26.6247 47.7925 26.0688 48.3483 26.0688 49.0339C26.0688 49.7195 26.6247 50.2754 27.3103 50.2754Z" fill="#FE9800"/>
<path d="M36.0002 50.2754C36.6859 50.2754 37.2417 49.7195 37.2417 49.0339C37.2417 48.3483 36.6859 47.7925 36.0002 47.7925C35.3146 47.7925 34.7588 48.3483 34.7588 49.0339C34.7588 49.7195 35.3146 50.2754 36.0002 50.2754Z" fill="#FE9800"/>
<path d="M44.6897 50.2754C45.3753 50.2754 45.9311 49.7195 45.9311 49.0339C45.9311 48.3483 45.3753 47.7925 44.6897 47.7925C44.0041 47.7925 43.4482 48.3483 43.4482 49.0339C43.4482 49.7195 44.0041 50.2754 44.6897 50.2754Z" fill="#FE9800"/>
<path d="M53.3796 50.2754C54.0652 50.2754 54.6211 49.7195 54.6211 49.0339C54.6211 48.3483 54.0652 47.7925 53.3796 47.7925C52.694 47.7925 52.1382 48.3483 52.1382 49.0339C52.1382 49.7195 52.694 50.2754 53.3796 50.2754Z" fill="#FE9800"/>
<path d="M62.0691 50.2754C62.7547 50.2754 63.3105 49.7195 63.3105 49.0339C63.3105 48.3483 62.7547 47.7925 62.0691 47.7925C61.3834 47.7925 60.8276 48.3483 60.8276 49.0339C60.8276 49.7195 61.3834 50.2754 62.0691 50.2754Z" fill="#FE9800"/>
<path d="M9.93089 60.2065C10.6165 60.2065 11.1723 59.6507 11.1723 58.9651C11.1723 58.2794 10.6165 57.7236 9.93089 57.7236C9.24526 57.7236 8.68945 58.2794 8.68945 58.9651C8.68945 59.6507 9.24526 60.2065 9.93089 60.2065Z" fill="#FE9800"/>
<path d="M18.6208 60.2065C19.3065 60.2065 19.8623 59.6507 19.8623 58.9651C19.8623 58.2794 19.3065 57.7236 18.6208 57.7236C17.9352 57.7236 17.3794 58.2794 17.3794 58.9651C17.3794 59.6507 17.9352 60.2065 18.6208 60.2065Z" fill="#FE9800"/>
<path d="M27.3103 60.2065C27.9959 60.2065 28.5517 59.6507 28.5517 58.9651C28.5517 58.2794 27.9959 57.7236 27.3103 57.7236C26.6247 57.7236 26.0688 58.2794 26.0688 58.9651C26.0688 59.6507 26.6247 60.2065 27.3103 60.2065Z" fill="#FE9800"/>
<path d="M36.0002 60.2065C36.6859 60.2065 37.2417 59.6507 37.2417 58.9651C37.2417 58.2794 36.6859 57.7236 36.0002 57.7236C35.3146 57.7236 34.7588 58.2794 34.7588 58.9651C34.7588 59.6507 35.3146 60.2065 36.0002 60.2065Z" fill="#FE9800"/>
<path d="M44.6897 60.2065C45.3753 60.2065 45.9311 59.6507 45.9311 58.9651C45.9311 58.2794 45.3753 57.7236 44.6897 57.7236C44.0041 57.7236 43.4482 58.2794 43.4482 58.9651C43.4482 59.6507 44.0041 60.2065 44.6897 60.2065Z" fill="#FE9800"/>
</g>
<defs>
<clipPath id="clip0">
<rect width="72" height="72" fill="white"/>
</clipPath>
</defs>
</svg>
