<svg width="72" height="72" viewBox="0 0 72 72" fill="none" xmlns="http://www.w3.org/2000/svg">
<path d="M35.9998 70.7998C55.2193 70.7998 70.7998 55.2193 70.7998 35.9998C70.7998 16.7802 55.2193 1.19971 35.9998 1.19971C16.7802 1.19971 1.19971 16.7802 1.19971 35.9998C1.19971 55.2193 16.7802 70.7998 35.9998 70.7998Z" fill="#FFC671"/>
<path d="M36.0003 70.7998C53.2317 70.7998 67.2004 55.2193 67.2004 35.9998C67.2004 16.7802 53.2317 1.19971 36.0003 1.19971C18.769 1.19971 4.80029 16.7802 4.80029 35.9998C4.80029 55.2193 18.769 70.7998 36.0003 70.7998Z" fill="#F4EFE6"/>
<path d="M4.79971 35.9998C4.79971 16.7801 18.7686 1.19971 35.9998 1.19971C16.7803 1.19971 1.19971 16.7803 1.19971 35.9998C1.19971 55.2193 16.7803 70.7998 35.9998 70.7998C18.7686 70.7998 4.79971 55.2193 4.79971 35.9998Z" fill="white"/>
<path d="M13.2 38.4C12.8816 38.4001 12.5763 38.2739 12.3513 38.0487C12.1261 37.8236 11.9999 37.5183 12 37.2C12.01 28.5886 18.9885 21.6099 27.6 21.6001H44.4C45.0628 21.6001 45.6 22.1374 45.6 22.8001C45.6 23.4628 45.0626 24 44.4 24H27.6C20.3132 24.0083 14.4082 29.9133 14.3999 37.2C14.4 37.5184 14.2738 37.8237 14.0486 38.0487C13.8235 38.2737 13.5182 38.4001 13.2 38.4Z" fill="#FE9800"/>
<path d="M32.4013 33.6002C31.8814 33.6005 31.4204 33.2661 31.2596 32.7718C31.0985 32.2775 31.2743 31.7357 31.6947 31.43L43.5599 22.8002L31.6947 14.1705C31.3466 13.9189 31.1596 13.5006 31.2043 13.0735C31.2489 12.6464 31.5184 12.2757 31.9109 12.1016C32.3034 11.9275 32.759 11.9763 33.1057 12.2299L46.3057 21.8299C46.6164 22.0555 46.8003 22.4163 46.8003 22.8002C46.8003 23.1841 46.6165 23.545 46.3057 23.7705L33.1055 33.3706C32.9009 33.5198 32.6544 33.6002 32.4013 33.6002Z" fill="#FE9800"/>
<path d="M36 72C16.1177 72 0 55.8823 0 36C0 16.1177 16.1177 0 36 0C55.8823 0 72 16.1177 72 36C71.9775 55.873 55.873 71.9775 36 72ZM36 2.40005C17.4433 2.40005 2.40005 17.4433 2.40005 36C2.40005 54.5567 17.4433 69.6 36 69.6C54.5567 69.6 69.6 54.5567 69.6 36C69.5791 17.4518 54.5482 2.42086 36 2.40005Z" fill="#FE9800"/>
<path d="M43.1997 50.4H26.3997C25.7369 50.4 25.1997 49.8627 25.1997 49.2C25.1997 48.5373 25.737 48.0001 26.3997 48.0001H43.1997C50.4865 47.9918 56.3915 42.0868 56.3998 34.8C56.3998 34.1373 56.9371 33.6001 57.5997 33.6001C58.2625 33.6001 58.7997 34.1374 58.7997 34.8C58.7898 43.4115 51.8112 50.39 43.1997 50.4Z" fill="#FE9800"/>
<path d="M38.3989 60.0001C38.1458 60.0001 37.8991 59.9196 37.6946 59.7704L24.4946 50.1704C24.1839 49.9448 24 49.584 24 49.2001C24 48.8162 24.1838 48.4553 24.4946 48.2298L37.6946 38.6297C38.0413 38.3763 38.4969 38.3274 38.8894 38.5015C39.2819 38.6756 39.5513 39.0463 39.596 39.4733C39.6406 39.9004 39.4536 40.3188 39.1057 40.5704L27.2404 49.2001L39.1057 57.8298C39.5261 58.1357 39.7018 58.6774 39.5407 59.1717C39.3797 59.666 38.9188 60.0004 38.3989 60.0001Z" fill="#FE9800"/>
</svg>
