<svg width="72" height="72" viewBox="0 0 72 72" fill="none" xmlns="http://www.w3.org/2000/svg">
<g clip-path="url(#clip0)">
<path d="M35.9997 70.7997C55.2192 70.7997 70.7997 55.2192 70.7997 35.9997C70.7997 16.7802 55.2192 1.19971 35.9997 1.19971C16.7802 1.19971 1.19971 16.7802 1.19971 35.9997C1.19971 55.2192 16.7802 70.7997 35.9997 70.7997Z" fill="#FFC671"/>
<path d="M34.1997 70.7997C52.4251 70.7997 67.1997 55.2192 67.1997 35.9997C67.1997 16.7802 52.4251 1.19971 34.1997 1.19971C15.9743 1.19971 1.19971 16.7802 1.19971 35.9997C1.19971 55.2192 15.9743 70.7997 34.1997 70.7997Z" fill="#F4EFE6"/>
<path d="M35.9995 70.7997C36.3095 70.7997 36.6155 70.7845 36.9235 70.7762C19.1043 70.2848 4.7997 54.9094 4.7997 35.9997C4.7997 17.09 19.1045 1.71453 36.9235 1.22319C36.6155 1.21504 36.3095 1.19971 35.9995 1.19971C16.7801 1.19971 1.19971 16.7802 1.19971 35.9997C1.19971 55.2192 16.7801 70.7997 35.9995 70.7997Z" fill="white"/>
<path d="M53.8643 6.58294C54.0013 6.52838 54.1305 6.45624 54.2488 6.36821C42.4867 -0.87734 27.5516 -0.476137 16.1953 7.39041C16.223 7.53103 16.2666 7.66814 16.3251 7.79907C18.6984 12.9137 21.7532 21.5944 26.9682 23.5942C29.5038 24.5666 31.8474 24.2 34.2507 25.3777C34.5589 25.5368 34.8295 25.7599 35.0442 26.0322C36.2654 27.8192 35.563 30.4378 36.7742 31.0785C37.7503 31.5088 38.2281 32.62 37.869 33.6244C36.1978 37.7257 37.6428 42.4167 41.5312 45.6361C44.2677 47.9016 41.9902 53.1534 39.6877 57.276C39.322 57.9461 39.4084 58.7724 39.9045 59.3525C40.4008 59.9326 41.2036 60.1459 41.9223 59.8884C44.5131 58.9343 46.8934 57.4853 48.9308 55.6222C52.4269 52.6157 53.1823 49.34 56.6469 46.788C56.6853 46.7615 56.7142 46.7236 56.7297 46.6796C57.6153 44.0832 60.3672 38.4146 57.5906 36.9711C54.9986 35.6249 54.0291 31.7261 51.4996 29.0691C51.1951 28.7761 50.7994 28.5961 50.3784 28.5591C47.2782 28.1601 45.8826 25.8011 43.7967 27.3694C43.1484 27.925 42.2505 28.0869 41.449 27.7927C40.6476 27.4983 40.0676 26.794 39.9329 25.9509C39.7351 25.1763 39.1036 24.5884 38.3171 24.4459C37.9097 24.3062 37.5767 24.0063 37.3953 23.6157C37.2138 23.225 37.1994 22.7773 37.3554 22.3758L37.3686 22.3392C37.7806 21.218 35.4622 21.3889 34.283 21.5855C33.953 21.6403 35.0736 20.3069 34.7053 20.5241C33.2562 21.3795 31.4563 19.9026 31.534 18.2216C31.6126 16.5168 31.9312 16.598 34.8544 16.2623C38.0006 14.7974 39.5237 15.8645 39.4234 19.4636C41.3685 19.7516 42.0479 18.8921 41.4618 16.8853C41.297 16.2891 41.4224 15.6503 41.8004 15.1609C44.7289 11.0125 48.9844 7.9868 53.8643 6.58294Z" fill="#FFC671"/>
<path d="M53.9907 36.9713C51.3987 35.6251 50.4292 31.7263 47.8996 29.0693C47.5952 28.7763 47.1995 28.5963 46.7785 28.5593C43.6782 28.1603 42.2827 25.8014 40.1968 27.3696C39.5485 27.9252 38.6506 28.0871 37.8491 27.7929C37.0475 27.4986 36.4677 26.7942 36.333 25.9511C36.1351 25.1766 35.5037 24.5886 34.7172 24.4462C34.3098 24.3064 33.9768 24.0066 33.7954 23.6159C33.6139 23.2253 33.5995 22.7775 33.7555 22.376L33.7687 22.3395C34.1807 21.2183 33.5793 20.2031 32.4001 20.3997C32.0701 20.4545 31.4737 20.3071 31.1054 20.5241C29.6563 21.3796 27.8564 19.9027 27.934 18.2217C28.0126 16.5169 28.3313 16.598 31.2545 16.2624C32.1884 15.6968 33.3097 15.5286 34.3685 15.7953C34.5555 15.6702 34.7751 15.6028 35.0001 15.6014H37.1001C37.3787 15.6002 37.6487 15.6982 37.8614 15.878C37.9251 15.6186 38.0403 15.3747 38.2003 15.1608C41.7839 10.4989 43.3295 8.4657 48.8155 6.58302C48.9525 6.52846 49.0817 6.45632 49.2 6.36828C44.3752 3.39041 40.2146 1.57171 34.2053 1.26318C33.9846 1.60237 33.6049 1.80431 33.2001 1.79784C28.8897 1.85381 24.9763 2.20298 21.818 5.26944C20.2697 6.75092 18.3154 7.73797 16.2041 8.10472C16.2194 8.8752 16.2187 9.653 16.3004 10.4769C18.0651 12.8905 19.6114 15.4563 20.9209 18.1442C21.0056 18.3326 21.0417 18.5394 21.0263 18.7454C21.5315 19.3913 22.0722 20.0085 22.646 20.5943C25.4714 23.4249 28.6301 23.6256 31.9479 25.1414C34.3888 26.0483 36.0488 28.3295 36.1611 30.9311C36.4286 30.9069 36.6947 30.9908 36.8997 31.1644C37.1047 31.3379 37.2316 31.5864 37.252 31.8541C37.2222 33.1117 37.0666 34.3632 36.7875 35.5897C36.8551 35.7514 36.8927 35.924 36.8983 36.0992C36.9529 37.8215 37.0213 39.5052 37.1589 41.1977C37.6487 41.1207 38.1281 41.3872 38.3211 41.844C39.5157 44.1619 47.1759 49.8698 41.5109 52.4869C41.4496 52.515 41.3976 52.5241 41.3381 52.5485C41.4198 52.7725 41.4247 53.0172 41.3519 53.2443C41.0606 54.1199 40.7532 54.9567 40.4003 55.7536C39.9819 56.7086 39.6943 57.7156 39.5453 58.7475C39.7845 58.8061 39.9994 58.9385 40.1595 59.1258C42.0332 58.1962 43.7729 57.0177 45.331 55.6221C48.8271 52.6157 49.5825 49.34 53.0471 46.7879C53.0855 46.7615 53.1144 46.7235 53.1299 46.6795C54.0154 44.0834 56.7673 38.4148 53.9907 36.9713Z" fill="#F3E4C9"/>
<path d="M35.9999 72.0009C16.1177 72.0009 0 55.8832 0 36.0009C0 16.1187 16.1177 0.000976562 35.9999 0.000976562C55.8822 0.000976562 71.9999 16.1187 71.9999 36.0009C71.9774 55.8737 55.8729 71.9784 35.9999 72.0009ZM35.9999 2.40102C17.4432 2.40102 2.40004 17.4442 2.40004 36.0009C2.40004 54.5576 17.4432 69.6008 35.9999 69.6008C54.5566 69.6008 69.6 54.5576 69.6 36.0009C69.5791 17.4528 54.548 2.42169 35.9999 2.40102Z" fill="#FE9800"/>
<path d="M41.2932 61.1984C40.3976 61.1969 39.5486 60.7992 38.974 60.1121C38.1546 59.1556 38.0209 57.7886 38.6395 56.6914C42.3931 49.9707 41.868 47.4723 40.7659 46.5605C36.4669 43.0016 34.8931 37.7457 36.757 33.1719C36.9287 32.7501 36.5958 32.3422 36.2137 32.1395C35.0401 31.5183 34.865 30.2047 34.7102 29.0457C34.6685 28.2271 34.4441 27.4283 34.0533 26.7078C33.956 26.6097 33.8455 26.5252 33.7252 26.4571C32.6063 25.9701 31.4166 25.6655 30.2015 25.5547C28.952 25.4172 27.7227 25.1352 26.5382 24.7145C21.6263 22.8312 18.6889 16.134 16.3283 10.7516C15.9462 9.88082 15.5841 9.05352 15.236 8.3047C15.1393 8.09137 15.0671 7.86763 15.021 7.63785C14.9213 7.16564 15.1147 6.67978 15.5114 6.405C27.259 -1.73422 42.7102 -2.14963 54.8781 5.34679C55.2258 5.56097 55.4405 5.93714 55.4482 6.34537C55.456 6.7536 55.2554 7.13765 54.9163 7.36476C54.7136 7.51087 54.4923 7.62913 54.2583 7.71632L54.2536 7.71871C49.6001 9.05282 45.5421 11.9366 42.7517 15.8925C42.6065 16.0781 42.5555 16.3204 42.6134 16.5488C43.0834 17.6384 42.9509 18.8942 42.2642 19.8617C41.4685 20.6389 40.3217 20.9387 39.2473 20.6503C38.646 20.5613 38.2064 20.0367 38.2237 19.4292C38.2775 17.5003 37.8024 17.0351 37.6553 16.9378C37.2902 16.7011 36.4325 16.8523 35.3607 17.3502C35.2441 17.4052 35.1191 17.4405 34.991 17.4546L34.4561 17.5155C33.8924 17.5624 33.332 17.643 32.778 17.7569C32.7528 17.9293 32.7378 18.1031 32.7328 18.2772C32.7296 18.7527 32.9764 19.195 33.3827 19.442C33.5898 19.5974 33.8691 19.6163 34.0952 19.49C34.5944 19.2017 35.2237 19.2761 35.6421 19.6728C35.7979 19.8279 35.9072 20.0235 35.9574 20.2377C36.7982 20.1595 37.6314 20.4523 38.2384 21.0392C38.6305 21.5206 38.7288 22.1775 38.4951 22.7525C38.4419 22.8774 38.4433 23.019 38.4992 23.1427C38.5318 23.2168 38.5941 23.2739 38.6709 23.2998C39.8476 23.556 40.7809 24.4514 41.0855 25.6166C41.1805 26.0939 41.5002 26.4959 41.9439 26.6959C42.3451 26.7898 42.767 26.6832 43.0754 26.41C44.9199 25.0213 46.5599 25.8135 47.8766 26.451C48.7039 26.904 49.6016 27.2142 50.532 27.3686C51.2263 27.4391 51.8748 27.747 52.3683 28.2405C53.4439 29.4538 54.3767 30.7868 55.148 32.2132C56.1178 33.8631 56.955 35.2882 58.1439 35.9057C61.4509 37.6259 59.5864 42.515 58.3524 45.7505C58.1655 46.2416 57.9944 46.6881 57.8649 47.0678C57.7695 47.3452 57.5907 47.5862 57.3527 47.7579C55.8833 48.926 54.626 50.3384 53.6361 51.9334C50.9362 56.0956 46.9707 59.2806 42.324 61.0189C41.9931 61.1374 41.6445 61.1982 41.2932 61.1984ZM17.6664 7.84654C17.9425 8.45587 18.2284 9.10865 18.5261 9.78716C20.5921 14.4981 23.4217 20.9492 27.3971 22.4739C28.4168 22.8279 29.4734 23.0648 30.5465 23.1805C32.0086 23.3206 33.4379 23.6986 34.7782 24.2996C35.2731 24.5492 35.7033 24.9104 36.0351 25.3543C36.6502 26.3793 37.0116 27.5364 37.0893 28.7293C37.1179 29.1806 37.2141 29.625 37.3746 30.0477C38.881 30.7649 39.5804 32.5214 38.9794 34.0777C37.5198 37.6612 38.8212 41.8355 42.2963 44.7113C45.8412 47.6457 43.1025 53.6223 40.7348 57.8609C40.6035 58.0851 40.6327 58.3688 40.8069 58.5616C40.977 58.7742 41.2647 58.8532 41.5195 58.7573C43.9699 57.8513 46.221 56.4778 48.1476 54.7132C49.4991 53.4897 50.683 52.0928 51.6685 50.5589C52.7574 48.8336 54.1172 47.2952 55.6957 46.0027C55.8153 45.6687 55.957 45.296 56.11 44.8952C56.8683 42.9065 58.4468 38.7687 57.037 38.0352C55.2353 37.1 54.1875 35.3165 53.0784 33.4286C52.3987 32.1625 51.5774 30.9775 50.6304 29.8965C50.5133 29.8076 50.3718 29.7566 50.2249 29.7501C49.0377 29.5652 47.8904 29.1804 46.8317 28.6122C45.4841 27.9605 45.1348 27.8633 44.5179 28.3298C43.583 29.0855 42.3333 29.3263 41.1845 28.972C39.9867 28.5312 39.0858 27.5243 38.7804 26.285C38.699 26.0048 38.6403 25.8022 37.9637 25.5935C37.2567 25.3753 36.6717 24.8737 36.3482 24.2084C36.1097 23.7241 36.0133 23.1819 36.0704 22.645C35.5377 22.6353 35.0055 22.6768 34.4808 22.7692C33.8515 22.8747 33.2426 22.4939 33.0616 21.8822C32.7389 21.8004 32.4301 21.6714 32.1452 21.499C30.9832 20.7979 30.2909 19.5236 30.3352 18.1673C30.4558 15.5481 31.7818 15.3994 34.1889 15.1309L34.5304 15.0922C36.4083 14.2544 37.8627 14.2028 38.9736 14.9329C39.5247 15.3027 39.949 15.8329 40.1889 16.4516C40.1698 15.7214 40.4032 15.007 40.8498 14.429C43.4929 10.6782 47.1993 7.80534 51.4911 6.1814C40.7404 0.597897 27.8166 1.23408 17.6666 7.84682L17.6664 7.84654ZM55.9347 45.8224L55.9259 45.8283L55.9347 45.8224Z" fill="#FE9800"/>
</g>
<defs>
<clipPath id="clip0">
<rect width="72" height="72" fill="white"/>
</clipPath>
</defs>
</svg>
