<svg width="72" height="72" viewBox="0 0 72 72" fill="none" xmlns="http://www.w3.org/2000/svg">
<g clip-path="url(#clip0)">
<path d="M20.4769 26.0688H3.09766V70.7585H20.4769V26.0688Z" fill="#FFC671"/>
<path d="M16.7533 26.0688H6.82227V70.7585H16.7533V26.0688Z" fill="#F3E4C9"/>
<path d="M6.82183 26.0688H3.09766V70.7585H6.82183V26.0688Z" fill="white"/>
<path d="M11.7877 64.5515C14.5301 64.5515 16.7532 62.3284 16.7532 59.5861C16.7532 56.8437 14.5301 54.6206 11.7877 54.6206C9.04538 54.6206 6.82227 56.8437 6.82227 59.5861C6.82227 62.3284 9.04538 64.5515 11.7877 64.5515Z" fill="#FFC671"/>
<path d="M9.29754 54.7939C9.17421 55.3719 8.65361 55.7778 8.06299 55.7564V63.0225C8.40372 63.0424 8.72196 63.1994 8.94527 63.4576C9.16858 63.7158 9.27799 64.0533 9.24874 64.3933C11.4575 63.8576 13.0169 61.8854 13.0285 59.6126C13.04 57.3398 11.5008 55.3518 9.29754 54.7939Z" fill="#F3E4C9"/>
<path d="M67.6494 33.517C67.6494 32.2001 67.1263 30.9371 66.1951 30.0058C65.2639 29.0744 64.0008 28.5514 62.684 28.5514H43.3157L44.5418 22.8179C45.3282 18.3719 45.3719 13.8263 44.6713 9.3661C44.1153 5.62056 40.7611 1.24121 37.2518 1.24121H36.9549C33.9631 1.24121 32.8909 4.54182 32.8909 8.68955C32.8909 28.8619 22.9598 28.5516 22.9598 28.5516H20.4771V68.2757H56.477C59.2194 68.2757 61.4425 66.0526 61.4425 63.3103C61.4425 60.5679 59.2194 58.3448 56.477 58.3448H60.2012C62.9435 58.3448 65.1667 56.1217 65.1667 53.3793C65.1667 50.637 62.9435 48.4139 60.2012 48.4139H63.9254C66.6677 48.4139 68.8909 46.1907 68.8909 43.4484C68.8909 40.3532 66.8884 39.1754 63.9254 38.7359C62.2763 38.558 60.6185 38.4735 58.9599 38.4829H62.6841C65.4263 38.4825 67.6494 36.2594 67.6494 33.517Z" fill="#FFC671"/>
<path d="M63.9254 33.5174C63.9254 32.2005 63.4023 30.9375 62.4711 30.0062C61.5398 29.0748 60.2767 28.5518 58.9599 28.5518H39.5915L40.8176 22.8183C41.604 18.3723 41.6477 13.8267 40.9471 9.3665C40.3911 5.62082 38.8829 2.48291 35.3736 2.48291H35.0767C32.0849 2.48291 34.1322 4.54208 34.1322 8.68982C34.1322 28.8622 22.9598 28.5518 22.9598 28.5518H20.4771V68.276H52.7529C55.4952 68.276 57.7183 66.0529 57.7183 63.3105C57.7183 60.5682 55.4952 58.3451 52.7529 58.3451H56.4771C59.2194 58.3451 61.4425 56.1219 61.4425 53.3796C61.4425 50.6373 59.2194 48.4141 56.4771 48.4141H60.2012C62.9436 48.4141 65.1667 46.191 65.1667 43.4487C65.1667 40.3535 63.1642 39.1756 60.2012 38.7362C58.5521 38.5583 56.8943 38.4738 55.2358 38.4832H58.9599C61.7023 38.4829 63.9254 36.2598 63.9254 33.5174Z" fill="#F4EFE6"/>
<path d="M20.4772 72.0002H3.09788C2.76868 72.0003 2.45284 71.8695 2.21996 71.6366C1.98709 71.4038 1.85645 71.0881 1.85645 70.7587V26.0691C1.8563 25.7399 1.98709 25.424 2.21996 25.1912C2.45284 24.9583 2.76854 24.8276 3.09788 24.8276H20.4772C20.8064 24.8275 21.1222 24.9583 21.3551 25.1912C21.588 25.424 21.7186 25.7397 21.7186 26.0691V70.7587C21.7187 71.0879 21.588 71.4038 21.3551 71.6366C21.1222 71.8695 20.8065 72.0003 20.4772 72.0002ZM4.33932 69.5174H19.2359V27.3105H4.33932V69.5174Z" fill="#FE9800"/>
<path d="M11.7875 65.7932C8.35946 65.7932 5.58057 63.0143 5.58057 59.5863C5.58057 56.1583 8.35946 53.3794 11.7875 53.3794C15.2155 53.3794 17.9944 56.1583 17.9944 59.5863C17.9903 63.0126 15.2138 65.7891 11.7875 65.7932ZM11.7875 55.8621C9.73069 55.8621 8.0633 57.5295 8.0633 59.5863C8.0633 61.6431 9.73069 63.3105 11.7875 63.3105C13.8443 63.3105 15.5116 61.6431 15.5116 59.5863C15.5094 57.5305 13.8433 55.8644 11.7875 55.8621Z" fill="#FE9800"/>
<path d="M60.2013 39.7241H50.2702C49.5847 39.7241 49.0288 39.1683 49.0288 38.4826C49.0288 37.797 49.5846 37.2412 50.2702 37.2412H60.2013C60.8869 37.2412 61.4428 37.797 61.4428 38.4826C61.4428 39.1683 60.8869 39.7241 60.2013 39.7241Z" fill="#FE9800"/>
<path d="M60.2013 49.6552H50.2702C49.5847 49.6552 49.0288 49.0995 49.0288 48.4138C49.0288 47.7281 49.5846 47.1724 50.2702 47.1724H60.2013C60.8869 47.1724 61.4428 47.7281 61.4428 48.4138C61.4428 49.0995 60.8869 49.6552 60.2013 49.6552Z" fill="#FE9800"/>
<path d="M57.7184 59.5864H47.7873C47.1018 59.5864 46.5459 59.0306 46.5459 58.345C46.5459 57.6593 47.1016 57.1035 47.7873 57.1035H57.7184C58.404 57.1035 58.9599 57.6593 58.9599 58.345C58.9599 59.0306 58.404 59.5864 57.7184 59.5864Z" fill="#FE9800"/>
<path d="M56.4773 69.5173H20.4773C20.1481 69.5174 19.8322 69.3866 19.5994 69.1537C19.3665 68.9209 19.2358 68.6052 19.2358 68.2758V28.5517C19.2357 28.2225 19.3665 27.9066 19.5994 27.6737C19.8322 27.4409 20.1479 27.3102 20.4773 27.3102H22.96C24.5378 27.165 26.0058 26.4397 27.0799 25.2748C29.1644 23.2066 31.6497 18.6497 31.6497 8.6895C31.6497 1.12866 34.9737 0 36.9553 0H37.2523C41.4214 0 45.2564 4.84917 45.8995 9.18422C46.6039 13.7924 46.5553 18.4843 45.7557 23.077L44.8508 27.3102H62.6842C65.272 27.3092 67.5885 28.9145 68.4965 31.3376C69.4045 33.7607 68.7133 36.493 66.7623 38.1929C68.915 39.018 70.2807 41.1476 70.1324 43.4482C70.1287 46.4295 68.0092 48.9884 65.0809 49.5472C66.421 51.2512 66.7744 53.531 66.0133 55.5607C65.2521 57.5904 63.4867 59.0756 61.3567 59.4782C62.8255 61.3458 63.0986 63.8883 62.06 66.0253C61.0213 68.1625 58.8533 69.5184 56.4773 69.5173ZM21.7187 67.0345H56.4773C58.5341 67.0345 60.2015 65.3671 60.2015 63.3104C60.2015 61.2536 58.5341 59.5862 56.4773 59.5862C55.7917 59.5862 55.2358 59.0304 55.2358 58.3447C55.2358 57.6591 55.7916 57.1033 56.4773 57.1033H60.2015C62.2582 57.1033 63.9256 55.4359 63.9256 53.3791C63.9256 51.3224 62.2582 49.655 60.2015 49.655C59.5159 49.655 58.96 49.0992 58.96 48.4135C58.96 47.7278 59.5158 47.1721 60.2015 47.1721H63.9256C65.9814 47.1698 67.6475 45.5039 67.6498 43.4479C67.6498 41.7035 66.9855 40.4439 63.7438 39.9638C62.155 39.7934 60.5579 39.7132 58.9602 39.7238C58.2746 39.7238 57.7187 39.168 57.7187 38.4823C57.7187 37.7966 58.2745 37.2409 58.9602 37.2409H62.6843C64.7411 37.2409 66.4085 35.5735 66.4085 33.5167C66.4085 31.4599 64.7411 29.7925 62.6843 29.7925H43.3162C42.9414 29.7924 42.5868 29.6231 42.3511 29.3317C42.1154 29.0403 42.0238 28.6581 42.102 28.2916L43.3277 22.5575C44.0681 18.2554 44.1072 13.8618 43.4435 9.54731C42.9718 6.3675 40.0216 2.48217 37.2522 2.48217H36.9552C34.499 2.48217 34.1324 6.37116 34.1324 8.68908C34.1324 17.454 32.3158 23.6583 28.7335 27.1304C27.216 28.7398 25.1311 29.6944 22.9212 29.7913L21.7186 29.7925V67.0345H21.7187Z" fill="#FE9800"/>
</g>
<defs>
<clipPath id="clip0">
<rect width="72" height="72" fill="white"/>
</clipPath>
</defs>
</svg>
