<svg width="64" height="60" viewBox="0 0 64 60" fill="none" xmlns="http://www.w3.org/2000/svg">
<g clip-path="url(#clip0)">
<path d="M0 18.9593L16.5272 2.42975L18.1801 4.08263L1.65288 20.6122L0 18.9593ZM2.92457 21.8859L19.4514 5.35667L21.1043 7.00954L4.57705 23.5387L2.92457 21.8859ZM45.8203 4.08498L47.4732 2.4321L64.0004 18.9593L62.3475 20.6146L45.8203 4.08498ZM59.4182 23.5317L42.891 7.00445L44.5439 5.35157L61.0711 21.8788L59.4182 23.5317Z" fill="white"/>
<path d="M49.9483 33.0086L58.2119 24.7473L41.6847 8.21777L33.421 16.4814L39.3705 22.4308C37.8347 23.9689 35.0927 26.7132 31.9973 29.8059C28.9024 26.7109 26.1604 23.9689 24.6223 22.4308L30.574 16.4814L22.3104 8.21777L5.7832 24.7473L14.0445 33.0086L19.9986 27.0568C21.532 28.5926 24.2763 31.3369 27.3717 34.4319C22.4605 39.3408 17.7291 44.0745 16.1906 45.613C14.2364 45.2248 12.0997 45.7533 10.6482 47.2071C9.50032 48.3527 8.86683 49.879 8.86683 51.4943C8.86683 53.119 9.50032 54.6453 10.6482 55.7885C11.7914 56.9317 13.3177 57.5699 14.9377 57.5699C16.5553 57.5699 18.0817 56.9364 19.2272 55.7885C20.7375 54.2782 21.275 52.1556 20.8519 50.2062C22.4346 48.6234 27.1331 43.9249 32.0001 39.0579C36.8671 43.9249 41.5656 48.621 43.146 50.2062C42.7252 52.1556 43.2604 54.2735 44.773 55.7885C45.9185 56.9317 47.4425 57.5699 49.0625 57.5699C50.6824 57.5699 52.2088 56.9364 53.352 55.7885C54.4999 54.6453 55.131 53.119 55.131 51.4943C55.131 49.879 54.4975 48.3527 53.352 47.2071C51.8981 45.7533 49.7661 45.2248 47.8072 45.613C46.2691 44.0749 41.533 39.3365 36.6261 34.4319C39.7211 31.3369 42.4655 28.5902 44.0012 27.0568L49.9483 33.0086ZM17.5673 54.136C16.1553 55.5479 13.7009 55.5479 12.2889 54.136C11.583 53.43 11.1951 52.4925 11.1951 51.4943C11.1951 50.4984 11.5834 49.5633 12.2889 48.8596C12.9949 48.1513 13.9301 47.7635 14.9283 47.7635C15.9242 47.7635 16.8593 48.156 17.5677 48.8596C19.0235 50.3119 19.0235 52.6798 17.5673 54.136ZM51.6944 48.86C52.4004 49.566 52.7882 50.5035 52.7882 51.4947C52.7882 52.4929 52.4004 53.4304 51.6944 54.1364C50.2848 55.5483 47.8304 55.5483 46.4184 54.1364C44.9622 52.6802 44.9622 50.3119 46.4161 48.8557C47.122 48.1521 48.0595 47.7639 49.0554 47.7639C50.0537 47.7662 50.9884 48.1588 51.6944 48.86Z" fill="white"/>
</g>
<defs>
<clipPath id="clip0">
<rect width="64" height="60" fill="white"/>
</clipPath>
</defs>
</svg>
