<svg width="220" height="60" viewBox="0 0 220 60" fill="none" xmlns="http://www.w3.org/2000/svg">
<g clip-path="url(#clip0)">
<path d="M84.5002 9V27H81.2002V6H91.6102V27H88.2502V9H84.5002Z" fill="white"/>
<path d="M97.3029 9V14.85H101.833V17.85H97.3029V24H103.003V27H94.0029V6H103.003V9H97.3029Z" fill="white"/>
<path d="M109.908 6C113.188 6 114.828 7.73 114.828 11.19V13.92C114.828 17.38 113.188 19.11 109.908 19.11H108.348V27H105.048V6H109.908ZM109.908 9H108.348V16.11H109.908C110.448 16.11 110.848 15.96 111.108 15.66C111.388 15.36 111.528 14.85 111.528 14.13V10.98C111.528 10.26 111.388 9.75 111.108 9.45C110.848 9.15 110.448 9 109.908 9Z" fill="white"/>
<path d="M121.336 6C123.036 6 124.276 6.4 125.056 7.2C125.836 7.98 126.226 9.19 126.226 10.83V11.58C126.226 13.74 125.516 15.15 124.096 15.81C125.736 16.45 126.556 17.95 126.556 20.31V22.02C126.556 23.64 126.126 24.88 125.266 25.74C124.426 26.58 123.186 27 121.546 27H116.356V6H121.336ZM121.126 17.55H119.656V24H121.546C122.126 24 122.556 23.85 122.836 23.55C123.116 23.23 123.256 22.69 123.256 21.93V20.1C123.256 19.14 123.086 18.48 122.746 18.12C122.426 17.74 121.886 17.55 121.126 17.55ZM121.246 9H119.656V14.55H120.946C121.606 14.55 122.096 14.38 122.416 14.04C122.756 13.7 122.926 13.13 122.926 12.33V11.16C122.926 9.72 122.366 9 121.246 9Z" fill="white"/>
<path d="M133.404 27H128.544V6H131.844V13.89H133.404C136.684 13.89 138.324 15.62 138.324 19.08V21.81C138.324 25.27 136.684 27 133.404 27ZM131.844 24H133.404C133.944 24 134.344 23.85 134.604 23.55C134.884 23.25 135.024 22.74 135.024 22.02V18.87C135.024 18.15 134.884 17.64 134.604 17.34C134.344 17.04 133.944 16.89 133.404 16.89H131.844V24ZM143.514 27H140.214V6H143.514V27Z" fill="white"/>
<path d="M149.307 27L152.067 17.37L153.417 12.21V27H156.387V6H152.757L150.057 14.67L148.857 19.29V6H145.917V27H149.307ZM152.697 1.32H154.707C154.707 2.36 154.407 3.18 153.807 3.78C153.207 4.36 152.337 4.65 151.197 4.65C150.077 4.65 149.227 4.36 148.647 3.78C148.087 3.2 147.787 2.38 147.747 1.32H149.787C149.827 1.86 149.957 2.23 150.177 2.43C150.397 2.61 150.737 2.7 151.197 2.7C151.677 2.7 152.037 2.6 152.277 2.4C152.517 2.2 152.657 1.84 152.697 1.32Z" fill="white"/>
<path d="M88.7302 57L85.5202 48.63L84.5002 50.55V57H81.2002V36H84.5002V45.15L88.8202 36H92.1202L87.5302 45.36L92.1202 57H88.7302Z" fill="white"/>
<path d="M100.942 36L104.302 57H100.972L100.402 53.19H96.3521L95.7821 57H92.7521L96.1121 36H100.942ZM98.3621 39.72L96.7721 50.34H99.9521L98.3621 39.72Z" fill="white"/>
<path d="M109.139 39V57H105.839V36H116.249V57H112.889V39H109.139Z" fill="white"/>
<path d="M124.792 47.37L122.032 57H118.642V36H121.582V49.29L122.782 44.67L125.482 36H129.112V57H126.142V42.21L124.792 47.37Z" fill="white"/>
<path d="M130.484 39V36H140.684V39H137.234V57H133.934V39H130.484Z" fill="white"/>
<path d="M149.458 36L152.818 57H149.488L148.918 53.19H144.868L144.298 57H141.268L144.628 36H149.458ZM146.878 39.72L145.288 50.34H148.468L146.878 39.72Z" fill="white"/>
<path d="M153.424 57.03V54.03C154.224 54.03 154.754 53.91 155.014 53.67C155.294 53.41 155.444 52.81 155.464 51.87L156.004 36H165.334V57H161.974V39H159.094L158.734 51.69C158.674 53.61 158.274 54.98 157.534 55.8C156.794 56.62 155.594 57.03 153.934 57.03H153.424Z" fill="white"/>
<path d="M172.72 57H167.86V36H171.16V43.89H172.72C176 43.89 177.64 45.62 177.64 49.08V51.81C177.64 55.27 176 57 172.72 57ZM171.16 54H172.72C173.26 54 173.66 53.85 173.92 53.55C174.2 53.25 174.34 52.74 174.34 52.02V48.87C174.34 48.15 174.2 47.64 173.92 47.34C173.66 47.04 173.26 46.89 172.72 46.89H171.16V54Z" fill="white"/>
<path d="M182.908 48V57H179.608V36H182.908V45H186.658V36H190.018V57H186.658V48H182.908Z" fill="white"/>
<path d="M197.271 57H192.411V36H195.711V43.89H197.271C200.551 43.89 202.191 45.62 202.191 49.08V51.81C202.191 55.27 200.551 57 197.271 57ZM195.711 54H197.271C197.811 54 198.211 53.85 198.471 53.55C198.751 53.25 198.891 52.74 198.891 52.02V48.87C198.891 48.15 198.751 47.64 198.471 47.34C198.211 47.04 197.811 46.89 197.271 46.89H195.711V54ZM207.381 57H204.081V36H207.381V57Z" fill="white"/>
<path d="M213.174 57L215.934 47.37L217.284 42.21V57H220.254V36H216.624L213.924 44.67L212.724 49.29V36H209.784V57H213.174ZM216.564 31.32H218.574C218.574 32.36 218.274 33.18 217.674 33.78C217.074 34.36 216.204 34.65 215.064 34.65C213.944 34.65 213.094 34.36 212.514 33.78C211.954 33.2 211.654 32.38 211.614 31.32H213.654C213.694 31.86 213.824 32.23 214.044 32.43C214.264 32.61 214.604 32.7 215.064 32.7C215.544 32.7 215.904 32.6 216.144 32.4C216.384 32.2 216.524 31.84 216.564 31.32Z" fill="white"/>
<path d="M0 18.9593L16.5272 2.42975L18.1801 4.08263L1.65288 20.6122L0 18.9593ZM2.92457 21.8859L19.4514 5.35667L21.1043 7.00954L4.57705 23.5387L2.92457 21.8859ZM45.8203 4.08498L47.4732 2.4321L64.0004 18.9593L62.3475 20.6146L45.8203 4.08498ZM59.4182 23.5317L42.891 7.00445L44.5439 5.35157L61.0711 21.8788L59.4182 23.5317Z" fill="white"/>
<path d="M49.9483 33.0086L58.2119 24.7473L41.6847 8.21777L33.421 16.4814L39.3705 22.4308C37.8347 23.9689 35.0927 26.7132 31.9973 29.8059C28.9024 26.7109 26.1604 23.9689 24.6223 22.4308L30.574 16.4814L22.3104 8.21777L5.7832 24.7473L14.0445 33.0086L19.9986 27.0568C21.532 28.5926 24.2763 31.3369 27.3717 34.4319C22.4605 39.3408 17.7291 44.0745 16.1906 45.613C14.2364 45.2248 12.0997 45.7533 10.6482 47.2071C9.50032 48.3527 8.86683 49.879 8.86683 51.4943C8.86683 53.119 9.50032 54.6453 10.6482 55.7885C11.7914 56.9317 13.3177 57.5699 14.9377 57.5699C16.5553 57.5699 18.0817 56.9364 19.2272 55.7885C20.7375 54.2782 21.275 52.1556 20.8519 50.2062C22.4346 48.6234 27.1331 43.9249 32.0001 39.0579C36.8671 43.9249 41.5656 48.621 43.146 50.2062C42.7252 52.1556 43.2604 54.2735 44.773 55.7885C45.9185 56.9317 47.4425 57.5699 49.0625 57.5699C50.6824 57.5699 52.2088 56.9364 53.352 55.7885C54.4999 54.6453 55.131 53.119 55.131 51.4943C55.131 49.879 54.4975 48.3527 53.352 47.2071C51.8981 45.7533 49.7661 45.2248 47.8072 45.613C46.2691 44.0749 41.533 39.3365 36.6261 34.4319C39.7211 31.3369 42.4655 28.5902 44.0012 27.0568L49.9483 33.0086ZM17.5673 54.136C16.1553 55.5479 13.7009 55.5479 12.2889 54.136C11.583 53.43 11.1951 52.4925 11.1951 51.4943C11.1951 50.4984 11.5834 49.5633 12.2889 48.8596C12.9949 48.1513 13.9301 47.7635 14.9283 47.7635C15.9242 47.7635 16.8593 48.156 17.5677 48.8596C19.0235 50.3119 19.0235 52.6798 17.5673 54.136ZM51.6944 48.86C52.4004 49.566 52.7882 50.5035 52.7882 51.4947C52.7882 52.4929 52.4004 53.4304 51.6944 54.1364C50.2848 55.5483 47.8304 55.5483 46.4184 54.1364C44.9622 52.6802 44.9622 50.3119 46.4161 48.8557C47.122 48.1521 48.0595 47.7639 49.0554 47.7639C50.0537 47.7662 50.9884 48.1588 51.6944 48.86Z" fill="white"/>
</g>
<defs>
<clipPath id="clip0">
<rect width="220" height="60" fill="white"/>
</clipPath>
</defs>
</svg>
