<svg width="48" height="48" viewBox="0 0 48 48" fill="none" xmlns="http://www.w3.org/2000/svg">
<circle cx="24" cy="24" r="23" stroke="#8D96A3" stroke-width="2"/>
<g clip-path="url(#clip0)">
<path d="M24 13.3333C19.5889 13.3333 16 16.9222 16 21.3334C16 22.6576 16.3311 23.9705 16.9605 25.1351L23.5625 37.0755C23.6504 37.2347 23.8179 37.3333 24 37.3333C24.1821 37.3333 24.3496 37.2347 24.4375 37.0755L31.042 25.1312C31.669 23.9705 32 22.6575 32 21.3333C32 16.9222 28.4111 13.3333 24 13.3333ZM24 25.3333C21.7945 25.3333 20 23.5389 20 21.3334C20 19.1278 21.7945 17.3334 24 17.3334C26.2056 17.3334 28 19.1278 28 21.3334C28 23.5389 26.2056 25.3333 24 25.3333Z" fill="white"/>
</g>
<defs>
<clipPath id="clip0">
<rect width="24" height="24" fill="white" transform="translate(12 13.3333)"/>
</clipPath>
</defs>
</svg>
