<svg width="48" height="48" viewBox="0 0 48 48" fill="none" xmlns="http://www.w3.org/2000/svg">
<circle cx="24" cy="24" r="23" stroke="#8D96A3" stroke-width="2"/>
<g clip-path="url(#clip0)">
<path d="M33.5516 29.8059L30.4629 26.7168C29.8477 26.1041 28.8289 26.1227 28.1923 26.7596L26.6362 28.3153C26.5379 28.2612 26.4361 28.2046 26.3291 28.1445C25.3465 27.6 24.0015 26.8538 22.5863 25.4375C21.1668 24.0182 20.4199 22.6712 19.8737 21.6879C19.8161 21.5837 19.7609 21.4833 19.7063 21.3879L20.7507 20.3451L21.2642 19.831C21.9018 19.1932 21.9194 18.1747 21.3056 17.5602L18.2169 14.4708C17.6031 13.8572 16.5839 13.8758 15.9463 14.5136L15.0758 15.3891L15.0995 15.4127C14.8077 15.7851 14.5637 16.2147 14.3822 16.6779C14.2149 17.1188 14.1107 17.5396 14.0631 17.9612C13.6553 21.3423 15.2003 24.4324 19.3934 28.6256C25.1896 34.4213 29.8605 33.9835 30.062 33.9621C30.5009 33.9096 30.9214 33.8048 31.3489 33.6388C31.8081 33.4594 32.2374 33.2158 32.6096 32.9246L32.6286 32.9414L33.5105 32.0779C34.1468 31.4402 34.1651 30.4214 33.5516 29.8059Z" fill="white"/>
</g>
<defs>
<clipPath id="clip0">
<rect width="20" height="20" fill="white" transform="translate(14 14)"/>
</clipPath>
</defs>
</svg>
