<svg width="20" height="20" viewBox="0 0 20 20" fill="none" xmlns="http://www.w3.org/2000/svg">
<g opacity="0.2">
<path d="M15.2051 13.2301C14.5517 12.5851 13.736 12.5851 13.0867 13.2301C12.5915 13.7212 12.0962 14.2123 11.6093 14.7117C11.4761 14.8491 11.3638 14.8782 11.2014 14.7867C10.881 14.6119 10.5397 14.4704 10.2317 14.2789C8.79592 13.3758 7.59315 12.2147 6.52773 10.9079C5.99918 10.2586 5.52889 9.5636 5.20011 8.78118C5.13352 8.62303 5.14601 8.51898 5.27502 8.38997C5.77028 7.91136 6.25305 7.42027 6.73998 6.92917C7.41836 6.24664 7.41836 5.44757 6.73582 4.76087C6.34877 4.36967 5.96172 3.98678 5.57467 3.59557C5.17514 3.19604 4.77977 2.79234 4.37607 2.39697C3.72267 1.76021 2.90695 1.76021 2.25771 2.40113C1.75829 2.89222 1.27968 3.3958 0.771944 3.87857C0.301659 4.32389 0.0644358 4.86908 0.014494 5.50584C-0.0645804 6.54213 0.18929 7.52015 0.547206 8.4732C1.27968 10.4459 2.39505 12.198 3.74764 13.8045C5.57467 15.9769 7.75546 17.6958 10.3067 18.936C11.4553 19.4937 12.6456 19.9223 13.9399 19.9931C14.8305 20.043 15.6046 19.8183 16.2247 19.1233C16.6493 18.6488 17.1279 18.216 17.5773 17.7624C18.2432 17.0881 18.2474 16.2724 17.5857 15.6065C16.7949 14.8116 16 14.0209 15.2051 13.2301Z" fill="black"/>
<path d="M14.4103 9.91321L15.946 9.65102C15.7047 8.24016 15.0388 6.96249 14.0274 5.94701C12.9579 4.87742 11.6053 4.20321 10.1153 3.99512L9.89893 5.53915C11.0517 5.70146 12.1005 6.22169 12.9287 7.04989C13.7111 7.83231 14.223 8.82282 14.4103 9.91321Z" fill="black"/>
<path d="M16.8114 3.23789C15.0384 1.46496 12.7952 0.34543 10.319 0L10.1025 1.54403C12.2417 1.84368 14.1811 2.81338 15.7127 4.34077C17.1651 5.79324 18.1182 7.6286 18.4636 9.64708L19.9993 9.38488C19.5956 7.04595 18.4928 4.92342 16.8114 3.23789Z" fill="black"/>
</g>
</svg>
