<svg width="19" height="11" viewBox="0 0 19 11" fill="none" xmlns="http://www.w3.org/2000/svg">
<path d="M18.1545 9.77475C18.1327 9.72777 18.1124 9.68881 18.0935 9.65759C17.7812 9.09513 17.1845 8.40476 16.3035 7.58626L16.2849 7.56752L16.2756 7.55832L16.2662 7.5489H16.2567C15.8569 7.16777 15.6037 6.9115 15.4977 6.7803C15.3037 6.53037 15.2602 6.27739 15.3663 6.02105C15.4412 5.82739 15.7226 5.41838 16.2097 4.79349C16.466 4.46232 16.669 4.19689 16.8188 3.99692C17.8998 2.55983 18.3685 1.64152 18.2247 1.24161L18.1688 1.14815C18.1313 1.09189 18.0345 1.04042 17.8785 0.993482C17.7221 0.94664 17.5222 0.938894 17.2785 0.97011L14.5795 0.988755C14.5358 0.973261 14.4733 0.974706 14.392 0.993482C14.3107 1.01226 14.2701 1.02168 14.2701 1.02168L14.2231 1.04515L14.1858 1.07335C14.1546 1.09199 14.1202 1.12478 14.0827 1.17166C14.0454 1.21837 14.0142 1.27318 13.9892 1.33565C13.6954 2.09165 13.3613 2.79453 12.9863 3.44428C12.7551 3.83171 12.5428 4.16748 12.3489 4.45178C12.1553 4.73598 11.9928 4.94537 11.8617 5.0796C11.7304 5.21395 11.6119 5.32158 11.5055 5.40289C11.3992 5.48423 11.3181 5.5186 11.262 5.50603C11.2057 5.49345 11.1527 5.48098 11.1025 5.46851C11.0151 5.41225 10.9447 5.33573 10.8917 5.2389C10.8385 5.14206 10.8026 5.02018 10.7839 4.87335C10.7653 4.72643 10.7542 4.60005 10.7511 4.4938C10.7482 4.38767 10.7495 4.23756 10.7558 4.04389C10.7623 3.85013 10.7653 3.71902 10.7653 3.65029C10.7653 3.41283 10.7699 3.15512 10.7792 2.87709C10.7886 2.59906 10.7963 2.37877 10.8027 2.21648C10.809 2.05403 10.812 1.88216 10.812 1.70096C10.812 1.51977 10.801 1.37767 10.7792 1.27453C10.7576 1.17153 10.7246 1.07154 10.681 0.974607C10.6372 0.877773 10.5731 0.802866 10.4889 0.749689C10.4046 0.696578 10.2997 0.65443 10.175 0.623115C9.84379 0.548175 9.42208 0.507636 8.90965 0.501334C7.7476 0.48886 7.00093 0.563898 6.66979 0.72635C6.53859 0.794988 6.41986 0.888769 6.3137 1.0074C6.20121 1.1449 6.18552 1.21994 6.26673 1.23229C6.64166 1.28845 6.90708 1.4228 7.0633 1.63521L7.11959 1.74777C7.16338 1.82898 7.2071 1.97276 7.25086 2.1789C7.29455 2.38504 7.32275 2.61308 7.33516 2.86288C7.36634 3.31905 7.36634 3.70954 7.33516 4.03438C7.30387 4.35934 7.27433 4.61233 7.24613 4.79352C7.21794 4.97472 7.17579 5.12155 7.11959 5.23397C7.0633 5.34643 7.02584 5.41517 7.00707 5.44011C6.98832 5.46506 6.9727 5.48078 6.96029 5.48696C6.87908 5.51807 6.79462 5.53393 6.70721 5.53393C6.61966 5.53393 6.51351 5.49014 6.38857 5.40263C6.26367 5.31512 6.13405 5.19491 5.99969 5.04181C5.86534 4.88868 5.71382 4.6747 5.54507 4.39982C5.37644 4.12494 5.20148 3.80007 5.02029 3.42521L4.87038 3.15335C4.77666 2.97845 4.64864 2.7238 4.48619 2.3896C4.32364 2.05528 4.17996 1.73188 4.05506 1.41949C4.00514 1.28828 3.93013 1.1884 3.83018 1.11966L3.78327 1.09146C3.75209 1.06652 3.70203 1.04003 3.63336 1.0118C3.56459 0.983601 3.49283 0.963381 3.4178 0.95094L0.849913 0.969585C0.587509 0.969585 0.409465 1.02903 0.315716 1.14776L0.278197 1.20392C0.259454 1.23521 0.25 1.28517 0.25 1.35394C0.25 1.42267 0.268743 1.50703 0.306262 1.60692C0.681126 2.48795 1.08878 3.33763 1.52923 4.15609C1.96968 4.97455 2.35242 5.63385 2.67723 6.13338C3.0021 6.63328 3.33324 7.10507 3.67065 7.54854C4.00806 7.99217 4.2314 8.27647 4.34068 8.40137C4.45008 8.5265 4.53602 8.62005 4.59849 8.68252L4.83282 8.90741C4.98277 9.05739 5.20296 9.237 5.4935 9.44627C5.7841 9.65566 6.10582 9.8618 6.45882 10.065C6.81189 10.2679 7.22263 10.4335 7.69128 10.5615C8.15986 10.6897 8.61593 10.7412 9.05956 10.7163H10.1373C10.3559 10.6975 10.5215 10.6287 10.6341 10.5101L10.6714 10.4631C10.6965 10.4258 10.7199 10.3679 10.7416 10.2899C10.7635 10.2118 10.7744 10.1258 10.7744 10.0322C10.768 9.76362 10.7885 9.52153 10.8352 9.306C10.8819 9.09054 10.9352 8.92809 10.9947 8.81868C11.0542 8.70937 11.1214 8.61713 11.1961 8.54236C11.271 8.46742 11.3244 8.42202 11.3557 8.4064C11.3868 8.39067 11.4117 8.38 11.4304 8.3736C11.5804 8.32364 11.7568 8.37203 11.9601 8.51899C12.1632 8.66581 12.3537 8.84711 12.5318 9.06257C12.7099 9.27823 12.9239 9.52019 13.1737 9.7888C13.4238 10.0575 13.6424 10.2572 13.8298 10.3886L14.0171 10.5011C14.1422 10.5761 14.3047 10.6449 14.5047 10.7073C14.7043 10.7698 14.8792 10.7854 15.0293 10.7542L17.4284 10.7168C17.6657 10.7168 17.8504 10.6775 17.9814 10.5995C18.1126 10.5214 18.1905 10.4354 18.2157 10.3418C18.2408 10.2481 18.2421 10.1418 18.2204 10.023C18.1982 9.90447 18.1763 9.82159 18.1545 9.77475Z" fill="white"/>
</svg>
